<svg aria-hidden="true" style="width:0;height:0;position:absolute;overflow:hidden" xmlns="http://www.w3.org/2000/svg"><defs><symbol id="icon-range" viewBox="0 0 146 32"><path d="M6.981 23.36c-1.004 0-1.863-.241-2.576-.722-.705-.489-1.282-1.161-1.73-2.016-.44-.863-.763-1.863-.971-2.999-.199-1.137-.299-2.352-.299-3.646s.1-2.51.299-3.646c.207-1.145.531-2.149.971-3.012.448-.871 1.025-1.551 1.73-2.041.713-.498 1.572-.747 2.576-.747s1.858.249 2.564.747c.713.489 1.29 1.17 1.73 2.041.44.863.763 1.867.971 3.012.207 1.137.311 2.352.311 3.646s-.104 2.51-.311 3.646c-.207 1.137-.531 2.136-.971 2.999-.44.855-1.016 1.527-1.73 2.016-.705.481-1.56.722-2.564.722zm0-1.867c.78 0 1.419-.286 1.916-.859.506-.572.884-1.419 1.132-2.539s.373-2.493.373-4.119c0-1.634-.124-3.012-.373-4.132s-.626-1.966-1.132-2.539c-.498-.581-1.137-.871-1.916-.871-.772 0-1.415.29-1.929.871-.506.572-.884 1.419-1.132 2.539s-.373 2.497-.373 4.132c0 1.634.124 3.012.373 4.132.249 1.112.626 1.954 1.132 2.526a2.486 2.486 0 0 0 1.929.859zm13.847-16.8v18.418h-2.116V6.995c-.066.091-.274.212-.622.361-.34.149-.763.295-1.269.436-.498.133-1.029.228-1.593.286V6.162a9.796 9.796 0 0 0 1.568-.386 7.753 7.753 0 0 0 1.269-.535c.348-.199.581-.382.697-.548h2.066zM35.556 16h71.111M124.315 23.36c-1.004 0-1.863-.241-2.576-.722-.705-.489-1.282-1.161-1.73-2.016-.44-.863-.763-1.863-.971-2.999-.199-1.137-.299-2.352-.299-3.646s.1-2.51.299-3.646c.207-1.145.531-2.149.971-3.012.448-.871 1.025-1.551 1.73-2.041.713-.498 1.572-.747 2.576-.747s1.858.249 2.564.747c.713.489 1.29 1.17 1.73 2.041.44.863.763 1.867.971 3.012.207 1.137.311 2.352.311 3.646s-.104 2.51-.311 3.646c-.207 1.137-.531 2.136-.971 2.999-.44.855-1.016 1.527-1.73 2.016-.705.481-1.56.722-2.564.722zm0-1.867c.78 0 1.419-.286 1.916-.859.506-.572.884-1.419 1.132-2.539s.373-2.493.373-4.119c0-1.634-.124-3.012-.373-4.132s-.626-1.966-1.132-2.539c-.498-.581-1.137-.871-1.916-.871-.772 0-1.415.29-1.929.871-.506.572-.884 1.419-1.132 2.539s-.373 2.497-.373 4.132c0 1.634.124 3.012.373 4.132.249 1.112.626 1.954 1.132 2.526a2.486 2.486 0 0 0 1.929.859zM142.841 6.61h-7.168l-.647 6.048c.025-.1.108-.232.249-.398a2.96 2.96 0 0 1 .647-.51c.291-.174.651-.319 1.083-.436s.938-.174 1.518-.174c1.51 0 2.655.539 3.435 1.618.788 1.079 1.182 2.501 1.182 4.268 0 1.361-.212 2.514-.635 3.46-.415.946-1.016 1.663-1.804 2.153-.788.481-1.742.722-2.862.722-.904 0-1.692-.133-2.364-.398a4.37 4.37 0 0 1-1.643-1.145 4.973 4.973 0 0 1-.958-1.717 7.116 7.116 0 0 1-.311-2.153V17.911h2.103V17.948c.008 1.253.291 2.157.846 2.713.564.556 1.348.834 2.352.834.647 0 1.203-.162 1.668-.485.473-.324.834-.813 1.083-1.468.257-.655.386-1.481.386-2.476 0-1.327-.245-2.335-.734-3.024-.481-.689-1.19-1.033-2.128-1.033-.606 0-1.137.12-1.593.361a3.738 3.738 0 0 0-1.132.859c-.29.34-.498.664-.622.971l-2.041-.523 1.132-9.918h8.96v1.854z"/></symbol><symbol id="chevron-right" viewBox="0 0 18 32"><path fill="none" stroke-linejoin="round" stroke-linecap="round" stroke-width="1.333" d="m12 24 8-8-8-8"/></symbol><symbol id="chevron-left" viewBox="0 0 18 32"><path fill="none" stroke-linejoin="round" stroke-linecap="round" stroke-width="1.333" d="m20 24-8-8 8-8"/></symbol><symbol id="left" viewBox="0 0 42 42" fill="none" xmlns="http://www.w3.org/2000/svg"><rect x=".5" y=".5" width="41" height="41" rx="8.5" stroke="#fff" stroke-opacity=".5"/><path d="m24 27-6-6 6-6" stroke="#fff" stroke-opacity=".5" stroke-linecap="round" stroke-linejoin="round"/></symbol><symbol id="right" viewBox="0 0 42 42" fill="none" xmlns="http://www.w3.org/2000/svg"><rect x=".5" y=".5" width="41" height="41" rx="8.5" stroke="#fff"/><path d="m18 27 6-6-6-6" stroke="#fff" stroke-linecap="round" stroke-linejoin="round"/></symbol><symbol id="icon-chevron-left" viewBox="0 0 32 32"><path d="m20 24-8-8 8-8"/></symbol><symbol id="icon-close" viewBox="0 0 24 24"><path d="M18 6 6 18M6 6l12 12" stroke="#141414" stroke-width="1.3" stroke-linecap="round" stroke-linejoin="round"/></symbol><symbol id="icon-heart" viewBox="0 0 24 24"><path d="M20.84 4.61a5.5 5.5 0 0 0-7.78 0L12 5.67l-1.06-1.06a5.501 5.501 0 1 0-7.78 7.78l1.06 1.06L12 21.23l7.78-7.78 1.06-1.06a5.5 5.5 0 0 0 0-7.78Z" stroke-width="2" stroke-linecap="round" stroke-linejoin="round"/></symbol><symbol id="hamburger-close" viewBox="0 0 24 24"><path d="M18 6 6 18M6 6l12 12" stroke="#fff" stroke-width="1.3" stroke-linecap="round" stroke-linejoin="round"/></symbol><symbol id="logo" viewBox="0 0 123 19" fill="none" xmlns="http://www.w3.org/2000/svg"><path d="m16.701 11.022-4.006-9.178-.874-.605-1.024-.326L9.411.54l-1.626.699-1.085.605 4.097 9.178h5.904ZM2.323 7.954l4.007 9.198.873.607 1.024.327 1.386.374 1.627-.7 1.084-.608-4.097-9.199H2.323Z" fill="#fff"/><path d="m6.486 1.965-6.22 8.99 6.22.067 4.496-9.057c.316-.927 1.304-.386 1.758 0-1.942-3.558-4.979-1.483-6.254 0ZM12.514 17.035l6.22-8.99-6.22-.067-4.496 9.057c-.316.927-1.304.387-1.758 0 1.942 3.558 4.979 1.483 6.254 0ZM27.297 14.12c-.245 0-.485-.027-.72-.082a1.726 1.726 0 0 1-.637-.293 1.488 1.488 0 0 1-.443-.607c-.11-.265-.165-.605-.165-1.02V7.16H23.39V6.035h1.245c.17 0 .302-.005.397-.015.096-.015.163-.047.203-.097a.452.452 0 0 0 .082-.248c.01-.115.015-.272.015-.473V3.395h1.283v2.64h2.49V7.16h-2.49V11.637c0 .425.05.758.15.998.105.24.337.36.697.36a2.182 2.182 0 0 0 .706-.112v1.11a2.18 2.18 0 0 1-.36.082c-.15.03-.32.045-.51.045Zm8.7-.12V9.447c0-.764-.165-1.342-.495-1.732-.325-.39-.843-.585-1.553-.585-.475 0-.892.093-1.252.277a2.106 2.106 0 0 0-.833.758c-.2.32-.3.683-.3 1.088l-.81-.248c0-.57.148-1.088.443-1.553.3-.47.707-.842 1.222-1.117.52-.28 1.108-.42 1.763-.42.955 0 1.707.287 2.257.862.555.575.833 1.37.833 2.385V14h-1.275Zm-5.708 0V2.277h1.275V14H30.29Zm9.162-3.473v-1.14h6.157l-.224.375v-.164c0-.46-.098-.88-.293-1.26a2.2 2.2 0 0 0-.855-.923c-.38-.23-.85-.345-1.41-.345-.565 0-1.063.12-1.492.36-.43.24-.766.58-1.006 1.02-.24.435-.36.955-.36 1.56 0 .615.115 1.145.345 1.59.235.445.568.787.998 1.027.43.24.94.36 1.53.36.42 0 .785-.042 1.095-.127.31-.09.565-.207.765-.352a1.7 1.7 0 0 0 .465-.488c.105-.175.168-.35.188-.525h1.275c-.026.32-.125.638-.3.953a2.986 2.986 0 0 1-.743.862c-.32.255-.712.46-1.178.615-.465.155-1 .232-1.605.232-.8 0-1.505-.175-2.114-.524a3.798 3.798 0 0 1-1.44-1.455c-.346-.62-.518-1.333-.518-2.138 0-.815.175-1.53.525-2.145.35-.62.833-1.105 1.447-1.455.615-.35 1.318-.525 2.108-.525.805 0 1.502.175 2.093.525.59.35 1.044.83 1.364 1.44.32.605.48 1.295.48 2.07 0 .08-.002.185-.007.315s-.013.217-.023.262h-7.267ZM54.479 14 52.25 6.035h1.133l2.107 7.402h-.232l1.395-7.402h1.327L56.264 14h-1.785Zm-5.385 0L47.36 6.035h1.328l1.41 7.402h-.233l2.085-7.402h1.133L50.886 14h-1.792Zm12.672.15c-.605 0-1.135-.095-1.59-.285-.45-.19-.8-.463-1.05-.818-.25-.36-.375-.79-.375-1.29 0-.52.135-.952.405-1.297.27-.35.65-.623 1.14-.818.49-.194 1.06-.324 1.71-.39.98-.1 1.677-.197 2.092-.292.415-.1.623-.26.623-.48v-.022c0-.46-.188-.803-.563-1.028-.375-.23-.917-.345-1.627-.345-.74 0-1.315.13-1.725.39-.41.255-.615.67-.615 1.245h-1.26c0-.595.152-1.1.457-1.515.305-.42.728-.74 1.268-.96.545-.22 1.172-.33 1.882-.33.65 0 1.235.1 1.755.3.525.195.94.487 1.245.878.31.385.465.862.465 1.432V12.5c0 .175.008.345.023.51.015.165.04.31.075.435.045.15.095.272.15.367.055.09.1.153.135.188h-1.283a.914.914 0 0 1-.112-.172 1.925 1.925 0 0 1-.225-.705 3.749 3.749 0 0 1-.03-.48l.21.142c-.155.27-.383.508-.683.713a3.471 3.471 0 0 1-1.072.48c-.42.114-.895.172-1.425.172Zm.202-1.148c.515 0 .98-.077 1.395-.232a2.27 2.27 0 0 0 .99-.705c.245-.31.368-.695.368-1.155V9.328l.285.48a6.11 6.11 0 0 1-1.2.307c-.475.075-.973.137-1.493.188-.755.07-1.325.202-1.71.397-.38.195-.57.523-.57.982 0 .435.158.765.473.99.315.22.802.33 1.462.33Zm8.636 1.118c-.245 0-.485-.027-.72-.082a1.726 1.726 0 0 1-.637-.293 1.488 1.488 0 0 1-.443-.607c-.11-.265-.165-.605-.165-1.02V7.16h-1.942V6.035h1.245c.17 0 .302-.005.397-.015.095-.015.163-.047.203-.097a.452.452 0 0 0 .082-.248c.01-.115.015-.272.015-.473V3.395h1.283v2.64h2.49V7.16h-2.49V11.637c0 .425.05.758.15.998.105.24.337.36.697.36a2.182 2.182 0 0 0 .705-.112v1.11a2.18 2.18 0 0 1-.36.082c-.15.03-.32.045-.51.045Zm6.508.03c-.76 0-1.45-.165-2.07-.495a3.766 3.766 0 0 1-1.477-1.432c-.36-.62-.54-1.358-.54-2.213s.18-1.588.54-2.197a3.676 3.676 0 0 1 1.477-1.41 4.39 4.39 0 0 1 2.07-.488c.58 0 1.098.09 1.553.27.455.175.84.41 1.155.705.315.295.555.62.72.975.17.35.255.7.255 1.05v.053h-1.268a.505.505 0 0 0-.007-.083l-.015-.105a1.608 1.608 0 0 0-.383-.877 2.18 2.18 0 0 0-.84-.6 3.015 3.015 0 0 0-1.177-.218c-.495 0-.955.107-1.38.322-.42.21-.76.533-1.02.968-.255.43-.383.975-.383 1.635 0 .655.128 1.203.383 1.643.255.44.592.772 1.012.997.425.22.888.33 1.388.33.54 0 .985-.085 1.335-.255.35-.17.612-.395.787-.675.18-.285.28-.59.3-.915h1.268c0 .36-.08.72-.24 1.08-.16.355-.395.68-.705.975-.31.29-.695.523-1.155.697-.455.175-.983.263-1.583.263ZM88.038 14V9.447c0-.764-.165-1.342-.495-1.732-.325-.39-.843-.585-1.553-.585-.474 0-.892.093-1.252.277a2.106 2.106 0 0 0-.832.758c-.2.32-.3.683-.3 1.088l-.81-.248c0-.57.147-1.088.442-1.553.3-.47.707-.842 1.222-1.117.52-.28 1.108-.42 1.763-.42.955 0 1.707.287 2.258.862.555.575.832 1.37.832 2.385V14h-1.275Zm-5.707 0V2.277h1.275V14H82.33Zm11.794.15c-.48 0-.925-.05-1.335-.15a3.675 3.675 0 0 1-1.065-.45c-.3-.2-.535-.445-.705-.735a1.981 1.981 0 0 1-.248-.997V11.585h1.283V11.75c0 .405.187.715.562.93.375.21.888.315 1.538.315.4 0 .757-.04 1.072-.12.315-.08.563-.203.743-.367a.799.799 0 0 0 .277-.623c0-.415-.195-.71-.585-.885-.385-.18-.962-.335-1.732-.465-.405-.07-.79-.16-1.155-.27a4.155 4.155 0 0 1-.975-.443 2.126 2.126 0 0 1-.668-.667c-.16-.27-.24-.592-.24-.967 0-.486.143-.896.428-1.23.29-.34.68-.598 1.17-.773.49-.18 1.035-.27 1.635-.27.58 0 1.115.093 1.605.277.49.186.882.455 1.177.81.3.35.45.783.45 1.298v.15h-1.275V8.337a.965.965 0 0 0-.277-.712 1.657 1.657 0 0 0-.72-.42 3.065 3.065 0 0 0-.945-.143c-.315 0-.625.035-.93.106a1.847 1.847 0 0 0-.758.33c-.2.154-.3.367-.3.637s.093.488.278.652c.19.16.455.293.795.398.345.1.75.192 1.215.277.415.075.807.17 1.177.286.37.11.695.252.975.427.285.175.508.397.668.667.165.265.247.59.247.976 0 .39-.09.73-.27 1.02-.175.29-.42.532-.735.727-.31.195-.67.34-1.08.435-.405.1-.837.15-1.297.15Zm4.913 3.127V6.035h1.275v11.242h-1.275Zm3.892-3.127a3.47 3.47 0 0 1-1.725-.45 3.677 3.677 0 0 1-1.305-1.252c-.33-.53-.495-1.136-.495-1.816v-.075l.915-.022v.067c0 .43.113.823.338 1.178.23.355.53.638.9.848.37.21.767.315 1.192.315.705 0 1.29-.24 1.755-.72.47-.486.705-1.223.705-2.213 0-.995-.232-1.73-.697-2.205-.465-.48-1.053-.72-1.763-.72-.425 0-.822.105-1.192.315-.37.205-.67.482-.9.832-.225.35-.338.743-.338 1.178l-.915-.03c0-.685.165-1.288.495-1.808.335-.52.77-.925 1.305-1.215a3.516 3.516 0 0 1 1.725-.442c.645 0 1.24.16 1.785.48.545.315.983.778 1.313 1.388.33.61.495 1.352.495 2.227 0 .89-.163 1.645-.488 2.265-.325.615-.76 1.082-1.305 1.402a3.533 3.533 0 0 1-1.8.473Zm8.908-.008c-.8 0-1.508-.177-2.123-.532-.61-.36-1.09-.85-1.44-1.47-.345-.625-.517-1.335-.517-2.13 0-.795.172-1.5.517-2.115.35-.615.83-1.097 1.44-1.447.615-.35 1.323-.526 2.123-.526.8 0 1.505.176 2.115.526.615.35 1.095.832 1.44 1.447.35.615.525 1.32.525 2.115 0 .795-.175 1.505-.525 2.13a3.836 3.836 0 0 1-1.44 1.47c-.61.355-1.315.533-2.115.533Zm0-1.17c.55 0 1.035-.122 1.455-.367.42-.245.747-.59.982-1.035.24-.445.36-.965.36-1.56 0-.595-.12-1.11-.36-1.545a2.458 2.458 0 0 0-.982-1.013c-.42-.24-.905-.36-1.455-.36-.545 0-1.03.12-1.455.36-.42.236-.75.573-.99 1.013-.235.435-.353.95-.353 1.545s.118 1.115.353 1.56c.24.445.57.79.99 1.035.425.245.91.367 1.455.367Zm8.61 1.148c-.245 0-.485-.027-.72-.082a1.724 1.724 0 0 1-.637-.293 1.489 1.489 0 0 1-.443-.607c-.11-.265-.165-.605-.165-1.02V7.16h-1.942V6.035h1.245c.17 0 .302-.005.397-.015.095-.015.163-.047.203-.097a.452.452 0 0 0 .082-.248c.01-.115.015-.272.015-.473V3.395h1.283v2.64h2.49V7.16h-2.49V11.637c0 .425.05.758.15.998.105.24.337.36.697.36a2.187 2.187 0 0 0 .705-.112v1.11a2.18 2.18 0 0 1-.36.082c-.15.03-.32.045-.51.045Z" fill="#fff"/><linearGradient id="paint0_linear_102_282" x1="15.665" y1="11.022" x2="10.914" y2="2.133" gradientUnits="userSpaceOnUse"><stop/><stop offset=".495" stop-color="#fff"/><stop offset="1" stop-color="#fff"/></linearGradient><linearGradient id="paint1_linear_102_282" x1="3.359" y1="7.954" x2="8.128" y2="16.854" gradientUnits="userSpaceOnUse"><stop stop-color="#fff"/><stop offset=".495" stop-color="#fff"/><stop offset="1" stop-color="#fff"/></linearGradient></symbol><symbol id="the-watch-logo" viewBox="0 0 123 19" fill="none" xmlns="http://www.w3.org/2000/svg"><path d="m16.701 11.022-4.006-9.178-.874-.605-1.024-.326L9.411.54l-1.626.699-1.085.605 4.097 9.178h5.904ZM2.323 7.954l4.007 9.198.873.607 1.024.327 1.386.374 1.627-.7 1.084-.608-4.097-9.199H2.323Z" fill="#1E2827"/><path d="m6.486 1.965-6.22 8.99 6.22.067 4.496-9.057c.316-.927 1.304-.386 1.758 0-1.942-3.558-4.979-1.483-6.254 0ZM12.514 17.035l6.22-8.99-6.22-.067-4.496 9.057c-.316.927-1.304.387-1.758 0 1.942 3.558 4.979 1.483 6.254 0ZM27.297 14.12c-.245 0-.485-.027-.72-.082a1.726 1.726 0 0 1-.637-.293 1.488 1.488 0 0 1-.443-.607c-.11-.265-.165-.605-.165-1.02V7.16H23.39V6.035h1.245c.17 0 .302-.005.397-.015.096-.015.163-.047.203-.097a.452.452 0 0 0 .082-.248c.01-.115.015-.272.015-.473V3.395h1.283v2.64h2.49V7.16h-2.49V11.637c0 .425.05.758.15.998.105.24.337.36.697.36a2.182 2.182 0 0 0 .706-.112v1.11a2.18 2.18 0 0 1-.36.082c-.15.03-.32.045-.51.045Zm8.7-.12V9.447c0-.764-.165-1.342-.495-1.732-.325-.39-.843-.585-1.553-.585-.475 0-.892.093-1.252.277a2.106 2.106 0 0 0-.833.758c-.2.32-.3.683-.3 1.088l-.81-.248c0-.57.148-1.088.443-1.553.3-.47.707-.842 1.222-1.117.52-.28 1.108-.42 1.763-.42.955 0 1.707.287 2.257.862.555.575.833 1.37.833 2.385V14h-1.275Zm-5.708 0V2.277h1.275V14H30.29Zm9.162-3.473v-1.14h6.157l-.224.375v-.164c0-.46-.098-.88-.293-1.26a2.2 2.2 0 0 0-.855-.923c-.38-.23-.85-.345-1.41-.345-.565 0-1.063.12-1.492.36-.43.24-.766.58-1.006 1.02-.24.435-.36.955-.36 1.56 0 .615.115 1.145.345 1.59.235.445.568.787.998 1.027.43.24.94.36 1.53.36.42 0 .785-.042 1.095-.127.31-.09.565-.207.765-.352a1.7 1.7 0 0 0 .465-.488c.105-.175.168-.35.188-.525h1.275c-.026.32-.125.638-.3.953a2.986 2.986 0 0 1-.743.862c-.32.255-.712.46-1.178.615-.465.155-1 .232-1.605.232-.8 0-1.505-.175-2.114-.524a3.798 3.798 0 0 1-1.44-1.455c-.346-.62-.518-1.333-.518-2.138 0-.815.175-1.53.525-2.145.35-.62.833-1.105 1.447-1.455.615-.35 1.318-.525 2.108-.525.805 0 1.502.175 2.093.525.59.35 1.044.83 1.364 1.44.32.605.48 1.295.48 2.07 0 .08-.002.185-.007.315s-.013.217-.023.262h-7.267ZM54.479 14 52.25 6.035h1.133l2.107 7.402h-.232l1.395-7.402h1.327L56.264 14h-1.785Zm-5.385 0L47.36 6.035h1.328l1.41 7.402h-.233l2.085-7.402h1.133L50.886 14h-1.792Zm12.672.15c-.605 0-1.135-.095-1.59-.285-.45-.19-.8-.463-1.05-.818-.25-.36-.375-.79-.375-1.29 0-.52.135-.952.405-1.297.27-.35.65-.623 1.14-.818.49-.194 1.06-.324 1.71-.39.98-.1 1.677-.197 2.092-.292.415-.1.623-.26.623-.48v-.022c0-.46-.188-.803-.563-1.028-.375-.23-.917-.345-1.627-.345-.74 0-1.315.13-1.725.39-.41.255-.615.67-.615 1.245h-1.26c0-.595.152-1.1.457-1.515.305-.42.728-.74 1.268-.96.545-.22 1.172-.33 1.882-.33.65 0 1.235.1 1.755.3.525.195.94.487 1.245.878.31.385.465.862.465 1.432V12.5c0 .175.008.345.023.51.015.165.04.31.075.435.045.15.095.272.15.367.055.09.1.153.135.188h-1.283a.914.914 0 0 1-.112-.172 1.925 1.925 0 0 1-.225-.705 3.749 3.749 0 0 1-.03-.48l.21.142c-.155.27-.383.508-.683.713a3.471 3.471 0 0 1-1.072.48c-.42.114-.895.172-1.425.172Zm.202-1.148c.515 0 .98-.077 1.395-.232a2.27 2.27 0 0 0 .99-.705c.245-.31.368-.695.368-1.155V9.328l.285.48a6.11 6.11 0 0 1-1.2.307c-.475.075-.973.137-1.493.188-.755.07-1.325.202-1.71.397-.38.195-.57.523-.57.982 0 .435.158.765.473.99.315.22.802.33 1.462.33Zm8.636 1.118c-.245 0-.485-.027-.72-.082a1.726 1.726 0 0 1-.637-.293 1.488 1.488 0 0 1-.443-.607c-.11-.265-.165-.605-.165-1.02V7.16h-1.942V6.035h1.245c.17 0 .302-.005.397-.015.095-.015.163-.047.203-.097a.452.452 0 0 0 .082-.248c.01-.115.015-.272.015-.473V3.395h1.283v2.64h2.49V7.16h-2.49V11.637c0 .425.05.758.15.998.105.24.337.36.697.36a2.182 2.182 0 0 0 .705-.112v1.11a2.18 2.18 0 0 1-.36.082c-.15.03-.32.045-.51.045Zm6.508.03c-.76 0-1.45-.165-2.07-.495a3.766 3.766 0 0 1-1.477-1.432c-.36-.62-.54-1.358-.54-2.213s.18-1.588.54-2.197a3.676 3.676 0 0 1 1.477-1.41 4.39 4.39 0 0 1 2.07-.488c.58 0 1.098.09 1.553.27.455.175.84.41 1.155.705.315.295.555.62.72.975.17.35.255.7.255 1.05v.053h-1.268a.505.505 0 0 0-.007-.083l-.015-.105a1.608 1.608 0 0 0-.383-.877 2.18 2.18 0 0 0-.84-.6 3.015 3.015 0 0 0-1.177-.218c-.495 0-.955.107-1.38.322-.42.21-.76.533-1.02.968-.255.43-.383.975-.383 1.635 0 .655.128 1.203.383 1.643.255.44.592.772 1.012.997.425.22.888.33 1.388.33.54 0 .985-.085 1.335-.255.35-.17.612-.395.787-.675.18-.285.28-.59.3-.915h1.268c0 .36-.08.72-.24 1.08-.16.355-.395.68-.705.975-.31.29-.695.523-1.155.697-.455.175-.983.263-1.583.263ZM88.038 14V9.447c0-.764-.165-1.342-.495-1.732-.325-.39-.843-.585-1.553-.585-.474 0-.892.093-1.252.277a2.106 2.106 0 0 0-.832.758c-.2.32-.3.683-.3 1.088l-.81-.248c0-.57.147-1.088.442-1.553.3-.47.707-.842 1.222-1.117.52-.28 1.108-.42 1.763-.42.955 0 1.707.287 2.258.862.555.575.832 1.37.832 2.385V14h-1.275Zm-5.707 0V2.277h1.275V14H82.33Zm11.794.15c-.48 0-.925-.05-1.335-.15a3.675 3.675 0 0 1-1.065-.45c-.3-.2-.535-.445-.705-.735a1.981 1.981 0 0 1-.248-.997V11.585h1.283V11.75c0 .405.187.715.562.93.375.21.888.315 1.538.315.4 0 .757-.04 1.072-.12.315-.08.563-.203.743-.367a.799.799 0 0 0 .277-.623c0-.415-.195-.71-.585-.885-.385-.18-.962-.335-1.732-.465-.405-.07-.79-.16-1.155-.27a4.155 4.155 0 0 1-.975-.443 2.126 2.126 0 0 1-.668-.667c-.16-.27-.24-.592-.24-.967 0-.486.143-.896.428-1.23.29-.34.68-.598 1.17-.773.49-.18 1.035-.27 1.635-.27.58 0 1.115.093 1.605.277.49.186.882.455 1.177.81.3.35.45.783.45 1.298v.15h-1.275V8.337a.965.965 0 0 0-.277-.712 1.657 1.657 0 0 0-.72-.42 3.065 3.065 0 0 0-.945-.143c-.315 0-.625.035-.93.106a1.847 1.847 0 0 0-.758.33c-.2.154-.3.367-.3.637s.093.488.278.652c.19.16.455.293.795.398.345.1.75.192 1.215.277.415.075.807.17 1.177.286.37.11.695.252.975.427.285.175.508.397.668.667.165.265.247.59.247.976 0 .39-.09.73-.27 1.02-.175.29-.42.532-.735.727-.31.195-.67.34-1.08.435-.405.1-.837.15-1.297.15Zm4.913 3.127V6.035h1.275v11.242h-1.275Zm3.892-3.127a3.47 3.47 0 0 1-1.725-.45 3.677 3.677 0 0 1-1.305-1.252c-.33-.53-.495-1.136-.495-1.816v-.075l.915-.022v.067c0 .43.113.823.338 1.178.23.355.53.638.9.848.37.21.767.315 1.192.315.705 0 1.29-.24 1.755-.72.47-.486.705-1.223.705-2.213 0-.995-.232-1.73-.697-2.205-.465-.48-1.053-.72-1.763-.72-.425 0-.822.105-1.192.315-.37.205-.67.482-.9.832-.225.35-.338.743-.338 1.178l-.915-.03c0-.685.165-1.288.495-1.808.335-.52.77-.925 1.305-1.215a3.516 3.516 0 0 1 1.725-.442c.645 0 1.24.16 1.785.48.545.315.983.778 1.313 1.388.33.61.495 1.352.495 2.227 0 .89-.163 1.645-.488 2.265-.325.615-.76 1.082-1.305 1.402a3.533 3.533 0 0 1-1.8.473Zm8.908-.008c-.8 0-1.508-.177-2.123-.532-.61-.36-1.09-.85-1.44-1.47-.345-.625-.517-1.335-.517-2.13 0-.795.172-1.5.517-2.115.35-.615.83-1.097 1.44-1.447.615-.35 1.323-.526 2.123-.526.8 0 1.505.176 2.115.526.615.35 1.095.832 1.44 1.447.35.615.525 1.32.525 2.115 0 .795-.175 1.505-.525 2.13a3.836 3.836 0 0 1-1.44 1.47c-.61.355-1.315.533-2.115.533Zm0-1.17c.55 0 1.035-.122 1.455-.367.42-.245.747-.59.982-1.035.24-.445.36-.965.36-1.56 0-.595-.12-1.11-.36-1.545a2.458 2.458 0 0 0-.982-1.013c-.42-.24-.905-.36-1.455-.36-.545 0-1.03.12-1.455.36-.42.236-.75.573-.99 1.013-.235.435-.353.95-.353 1.545s.118 1.115.353 1.56c.24.445.57.79.99 1.035.425.245.91.367 1.455.367Zm8.61 1.148c-.245 0-.485-.027-.72-.082a1.724 1.724 0 0 1-.637-.293 1.489 1.489 0 0 1-.443-.607c-.11-.265-.165-.605-.165-1.02V7.16h-1.942V6.035h1.245c.17 0 .302-.005.397-.015.095-.015.163-.047.203-.097a.452.452 0 0 0 .082-.248c.01-.115.015-.272.015-.473V3.395h1.283v2.64h2.49V7.16h-2.49V11.637c0 .425.05.758.15.998.105.24.337.36.697.36a2.187 2.187 0 0 0 .705-.112v1.11a2.18 2.18 0 0 1-.36.082c-.15.03-.32.045-.51.045Z" fill="#1E2827"/><linearGradient id="paint0_linear_102_282" x1="15.665" y1="11.022" x2="10.914" y2="2.133" gradientUnits="userSpaceOnUse"><stop/><stop offset=".495" stop-color="#1E2827"/><stop offset="1" stop-color="#1E2827"/></linearGradient><linearGradient id="paint1_linear_102_282" x1="3.359" y1="7.954" x2="8.128" y2="16.854" gradientUnits="userSpaceOnUse"><stop stop-color="#1E2827"/><stop offset=".495" stop-color="#1E2827"/><stop offset="1" stop-color="#1E2827"/></linearGradient></symbol><symbol id="logo-icon" viewBox="0 0 50 50" fill="none" xmlns="http://www.w3.org/2000/svg"><path d="M43.951 29.006 33.408 4.855l-2.3-1.594-2.695-.858-3.646-.981-4.281 1.839-2.854 1.594 10.781 24.15h15.538ZM6.113 20.93l10.544 24.207 2.299 1.598 2.695.86 3.647.983 4.28-1.843 2.854-1.598-10.78-24.207H6.112Z" fill="#fff"/><path d="M17.068 5.17.7 28.83l16.368.175L28.9 5.17c.831-2.438 3.43-1.016 4.626 0-5.11-9.363-13.101-3.901-16.458 0ZM32.932 44.83 49.3 21.17l-16.368-.175L21.099 44.83c-.83 2.438-3.43 1.016-4.625 0 5.11 9.363 13.101 3.901 16.458 0Z" fill="#fff"/><defs><linearGradient id="paint0_linear_102_110" x1="41.224" y1="29.006" x2="28.72" y2="5.613" gradientUnits="userSpaceOnUse"><stop/><stop offset=".495" stop-color="#fff"/><stop offset="1" stop-color="#fff"/></linearGradient><linearGradient id="paint1_linear_102_110" x1="8.84" y1="20.93" x2="21.39" y2="44.353" gradientUnits="userSpaceOnUse"><stop stop-color="#fff"/><stop offset=".495" stop-color="#fff"/><stop offset="1" stop-color="#fff"/></linearGradient></defs></symbol><symbol id="facebook" viewBox="0 0 28 28" xmlns="http://www.w3.org/2000/svg"><path d="M17.08 4.06h.84v3.15h-1.05c-.42 0-.84 0-1.05.21-.21.21-.21.42-.21.91v1.12h2.31v2.66h-2.31v11.55h-3.57V12.04h-1.89V9.38h1.89v-.91c0-1.54.21-2.66.63-3.15.63-.91 1.89-1.33 3.78-1.33.21.07.42.07.63.07Z" opacity=".8"/></symbol><symbol id="instagram" viewBox="0 0 28 28" xmlns="http://www.w3.org/2000/svg"><g opacity=".8"><path d="M25.128 9.411a8.096 8.096 0 0 0-.521-2.752 5.73 5.73 0 0 0-3.276-3.27 8.23 8.23 0 0 0-2.719-.52c-1.196-.054-1.576-.07-4.613-.07-3.038 0-3.427 0-4.615.07-.93.019-1.849.194-2.718.52a5.726 5.726 0 0 0-3.275 3.27 8.127 8.127 0 0 0-.521 2.714c-.054 1.196-.07 1.574-.07 4.607 0 3.032 0 3.42.07 4.607.018.929.194 1.846.52 2.716a5.729 5.729 0 0 0 3.277 3.268 8.2 8.2 0 0 0 2.718.56c1.198.053 1.577.069 4.615.069 3.038 0 3.427 0 4.615-.07a8.211 8.211 0 0 0 2.719-.52 5.736 5.736 0 0 0 3.275-3.27c.327-.87.503-1.785.521-2.716.054-1.194.07-1.573.07-4.607-.002-3.032-.002-3.417-.072-4.606ZM13.99 19.715a5.745 5.745 0 0 1-5.75-5.741 5.744 5.744 0 0 1 5.75-5.741c3.175 0 5.75 2.57 5.75 5.74a5.746 5.746 0 0 1-5.75 5.742Zm5.98-10.356a1.338 1.338 0 1 1 0-2.677 1.338 1.338 0 1 1 0 2.677Z"/><path d="M13.993 17.48a3.504 3.504 0 1 0 0-7.008 3.504 3.504 0 0 0 0 7.007Z"/></g></symbol><symbol id="youtube" viewBox="0 0 28 28" xmlns="http://www.w3.org/2000/svg"><path fill-rule="evenodd" clip-rule="evenodd" d="M21.21 5.25c-1.19-.07-3.64-.14-7.35-.14h-.49c-3.57 0-5.95.07-7.14.21-1.61.14-2.73.56-3.36 1.12-.56.49-.98 1.4-1.12 2.59-.07.77-.14 2.38-.14 4.83v.35c0 2.31.07 3.92.21 4.69.21 1.12.56 1.96 1.26 2.45.7.56 1.89.91 3.57 1.05 1.19.07 3.64.14 7.35.14h.49c3.57 0 5.95-.07 7.14-.21 1.61-.14 2.73-.56 3.36-1.12.56-.49.98-1.4 1.12-2.59.07-.77.14-2.38.14-4.83v-.35c0-2.31-.07-3.92-.21-4.69-.21-1.12-.56-1.96-1.26-2.45-.7-.56-1.89-.91-3.57-1.05Zm-2.73 8.61-7.7 4.62V9.24l7.7 4.62Z" opacity=".8"/></symbol><symbol id="hamburger-menu" viewBox="0 0 24 24" fill="none" xmlns="http://www.w3.org/2000/svg"><path d="M2 5.995c0-.55.446-.995.995-.995h8.01a.995.995 0 1 1 0 1.99h-8.01A.995.995 0 0 1 2 5.995ZM2 12c0-.55.446-.995.995-.995h18.01a.995.995 0 1 1 0 1.99H2.995A.995.995 0 0 1 2 12Zm.995 5.01a.995.995 0 1 0 0 1.99h12.01a.995.995 0 1 0 0-1.99H2.995Z" fill="#fff"/></symbol></defs></svg>