<svg aria-hidden="true" style="position: absolute; width: 0; height: 0; overflow: hidden;" version="1.1" xmlns="http://www.w3.org/2000/svg" xmlns:xlink="http://www.w3.org/1999/xlink">
<defs>

<!-- range icon -->
<symbol id="icon-range" viewBox="0 0 146 32">
<path d="M6.981 23.36c-1.004 0-1.863-0.241-2.576-0.722-0.705-0.489-1.282-1.161-1.73-2.016-0.44-0.863-0.763-1.863-0.971-2.999-0.199-1.137-0.299-2.352-0.299-3.646s0.1-2.51 0.299-3.646c0.207-1.145 0.531-2.149 0.971-3.012 0.448-0.871 1.025-1.551 1.73-2.041 0.713-0.498 1.572-0.747 2.576-0.747s1.858 0.249 2.564 0.747c0.713 0.489 1.29 1.17 1.73 2.041 0.44 0.863 0.763 1.867 0.971 3.012 0.207 1.137 0.311 2.352 0.311 3.646s-0.104 2.51-0.311 3.646c-0.207 1.137-0.531 2.136-0.971 2.999-0.44 0.855-1.016 1.527-1.73 2.016-0.705 0.481-1.56 0.722-2.564 0.722zM6.981 21.493c0.78 0 1.419-0.286 1.916-0.859 0.506-0.572 0.884-1.419 1.132-2.539s0.373-2.493 0.373-4.119c0-1.634-0.124-3.012-0.373-4.132s-0.626-1.966-1.132-2.539c-0.498-0.581-1.137-0.871-1.916-0.871-0.772 0-1.415 0.29-1.929 0.871-0.506 0.572-0.884 1.419-1.132 2.539s-0.373 2.497-0.373 4.132c0 1.634 0.124 3.012 0.373 4.132 0.249 1.112 0.626 1.954 1.132 2.526 0.514 0.572 1.157 0.859 1.929 0.859zM20.828 4.693v18.418h-2.116v-16.116c-0.066 0.091-0.274 0.212-0.622 0.361-0.34 0.149-0.763 0.295-1.269 0.436-0.498 0.133-1.029 0.228-1.593 0.286v-1.916c0.556-0.091 1.079-0.22 1.568-0.386 0.498-0.166 0.921-0.344 1.269-0.535 0.348-0.199 0.581-0.382 0.697-0.548h2.066z"></path>
<path d="M35.556 16h71.111"></path>
<path d="M124.315 23.36c-1.004 0-1.863-0.241-2.576-0.722-0.705-0.489-1.282-1.161-1.73-2.016-0.44-0.863-0.763-1.863-0.971-2.999-0.199-1.137-0.299-2.352-0.299-3.646s0.1-2.51 0.299-3.646c0.207-1.145 0.531-2.149 0.971-3.012 0.448-0.871 1.025-1.551 1.73-2.041 0.713-0.498 1.572-0.747 2.576-0.747s1.858 0.249 2.564 0.747c0.713 0.489 1.29 1.17 1.73 2.041 0.44 0.863 0.763 1.867 0.971 3.012 0.207 1.137 0.311 2.352 0.311 3.646s-0.104 2.51-0.311 3.646c-0.207 1.137-0.531 2.136-0.971 2.999-0.44 0.855-1.016 1.527-1.73 2.016-0.705 0.481-1.56 0.722-2.564 0.722zM124.315 21.493c0.78 0 1.419-0.286 1.916-0.859 0.506-0.572 0.884-1.419 1.132-2.539s0.373-2.493 0.373-4.119c0-1.634-0.124-3.012-0.373-4.132s-0.626-1.966-1.132-2.539c-0.498-0.581-1.137-0.871-1.916-0.871-0.772 0-1.415 0.29-1.929 0.871-0.506 0.572-0.884 1.419-1.132 2.539s-0.373 2.497-0.373 4.132c0 1.634 0.124 3.012 0.373 4.132 0.249 1.112 0.626 1.954 1.132 2.526 0.514 0.572 1.157 0.859 1.929 0.859zM142.841 6.61h-7.168l-0.647 6.048c0.025-0.1 0.108-0.232 0.249-0.398 0.149-0.166 0.365-0.336 0.647-0.51 0.291-0.174 0.651-0.319 1.083-0.436s0.938-0.174 1.518-0.174c1.51 0 2.655 0.539 3.435 1.618 0.788 1.079 1.182 2.501 1.182 4.268 0 1.361-0.212 2.514-0.635 3.46-0.415 0.946-1.016 1.663-1.804 2.153-0.788 0.481-1.742 0.722-2.862 0.722-0.904 0-1.692-0.133-2.364-0.398-0.664-0.274-1.211-0.655-1.643-1.145-0.423-0.489-0.742-1.062-0.958-1.717-0.207-0.655-0.311-1.373-0.311-2.153 0-0.008 0-0.012 0-0.012 0-0.008 0-0.017 0-0.025h2.103c0 0.008 0 0.017 0 0.025 0 0 0 0.004 0 0.012 0.008 1.253 0.291 2.157 0.846 2.713 0.564 0.556 1.348 0.834 2.352 0.834 0.647 0 1.203-0.162 1.668-0.485 0.473-0.324 0.834-0.813 1.083-1.468 0.257-0.655 0.386-1.481 0.386-2.476 0-1.327-0.245-2.335-0.734-3.024-0.481-0.689-1.19-1.033-2.128-1.033-0.606 0-1.137 0.12-1.593 0.361-0.456 0.232-0.834 0.519-1.132 0.859-0.29 0.34-0.498 0.664-0.622 0.971l-2.041-0.523 1.132-9.918h8.96v1.854z"></path>
</symbol>

<!-- arrow right -->
<symbol id="chevron-right" viewBox="0 0 18 32">
<path fill="none" stroke-linejoin="round" stroke-linecap="round" stroke-miterlimit="4" stroke-width="1.3333" d="M12 24l8-8-8-8"></path>
</symbol>

<!-- arrow left -->
<symbol id="chevron-left" viewBox="0 0 18 32">
<path fill="none" stroke-linejoin="round" stroke-linecap="round" stroke-miterlimit="4" stroke-width="1.3333" d="M20 24l-8-8 8-8"></path>
</symbol>


<symbol id="left" width="18" height="18" viewBox="0 0 42 42" fill="none" xmlns="http://www.w3.org/2000/svg">
<rect x="0.5" y="0.5" width="41" height="41" rx="8.5" stroke="white" stroke-opacity="0.5"/>
<path d="M24 27L18 21L24 15" stroke="white" stroke-opacity="0.5" stroke-linecap="round" stroke-linejoin="round"/>
</symbol>

<symbol id="right" width="18" height="18" viewBox="0 0 42 42" fill="none" xmlns="http://www.w3.org/2000/svg">
<rect x="0.5" y="0.5" width="41" height="41" rx="8.5" stroke="white"/>
<path d="M18 27L24 21L18 15" stroke="white" stroke-linecap="round" stroke-linejoin="round"/>
</symbol>

<!-- arrow left -->
<symbol id="icon-chevron-left" viewBox="0 0 32 32">

<path d="M20 24l-8-8 8-8"></path>
</symbol>

<!-- Close icon -->
<symbol id="icon-close" viewBox="0 0 24 24">
<path d="M18 6L6 18" stroke="#141414" stroke-width="1.3" stroke-linecap="round" stroke-linejoin="round"/>
<path d="M6 6L18 18" stroke="#141414" stroke-width="1.3" stroke-linecap="round" stroke-linejoin="round"/>
</symbol>

<symbol id="icon-heart" viewBox="0 0 24 24">
  <path d="M20.8401 4.60999C20.3294 4.099 19.7229 3.69364 19.0555 3.41708C18.388 3.14052 17.6726 2.99817 16.9501 2.99817C16.2276 2.99817 15.5122 3.14052 14.8448 3.41708C14.1773 3.69364 13.5709 4.099 13.0601 4.60999L12.0001 5.66999L10.9401 4.60999C9.90843 3.5783 8.50915 2.9987 7.05012 2.9987C5.59109 2.9987 4.19181 3.5783 3.16012 4.60999C2.12843 5.64169 1.54883 7.04096 1.54883 8.49999C1.54883 9.95903 2.12843 11.3583 3.16012 12.39L4.22012 13.45L12.0001 21.23L19.7801 13.45L20.8401 12.39C21.3511 11.8792 21.7565 11.2728 22.033 10.6053C22.3096 9.93789 22.4519 9.22248 22.4519 8.49999C22.4519 7.77751 22.3096 7.0621 22.033 6.39464C21.7565 5.72718 21.3511 5.12075 20.8401 4.60999V4.60999Z" stroke-opacity="1" stroke-width="2" stroke-linecap="round" stroke-linejoin="round"/>
</symbol>

<!-- Hamburger icon -->
<symbol id="hamburger-close" viewBox="0 0 24 24">
<path d="M18 6L6 18" stroke="#ffffff" stroke-width="1.3" stroke-linecap="round" stroke-linejoin="round"/>
<path d="M6 6L18 18" stroke="#ffffff" stroke-width="1.3" stroke-linecap="round" stroke-linejoin="round"/>
</symbol>

<!-- Logo -->
<symbol id="logo" width="123" height="19" viewBox="0 0 123 19" fill="none" xmlns="http://www.w3.org/2000/svg">
<path d="M16.7014 11.022L12.6949 1.84445L11.8213 1.23883L10.797 0.912729L9.41133 0.540039L7.78461 1.23883L6.70013 1.84445L10.797 11.022H16.7014Z" fill="#ffffff"/>
<path d="M2.32305 7.9535L6.32959 17.1525L7.2032 17.7595L8.22743 18.0864L9.61315 18.46L11.2399 17.7595L12.3243 17.1525L8.22743 7.9535H2.32305Z" fill="#ffffff"/>
<path d="M6.4859 1.9646L0.265933 10.9553L6.4859 11.022L10.9822 1.9646C11.2979 1.03802 12.2856 1.57853 12.74 1.9646C10.798 -1.59348 7.76144 0.482067 6.4859 1.9646Z" fill="#ffffff"/>
<path d="M12.5141 17.0354L18.7341 8.04468L12.5141 7.97804L8.01783 17.0354C7.70213 17.962 6.71439 17.4215 6.25997 17.0354C8.20198 20.5935 11.2386 18.5179 12.5141 17.0354Z" fill="#ffffff"/>
<path d="M27.2975 14.12C27.0525 14.12 26.8125 14.0925 26.5775 14.0375C26.3425 13.9825 26.13 13.885 25.94 13.745C25.755 13.6 25.6075 13.3975 25.4975 13.1375C25.3875 12.8725 25.3325 12.5325 25.3325 12.1175C25.3325 12.0125 25.3325 11.905 25.3325 11.795C25.3325 11.68 25.3325 11.56 25.3325 11.435V7.16H23.39V6.035H24.635C24.805 6.035 24.9375 6.03 25.0325 6.02C25.1275 6.005 25.195 5.9725 25.235 5.9225C25.28 5.8675 25.3075 5.785 25.3175 5.675C25.3275 5.56 25.3325 5.4025 25.3325 5.2025V3.395H26.615V6.035H29.105V7.16H26.615V11.0225C26.615 11.1325 26.615 11.24 26.615 11.345C26.615 11.45 26.615 11.5475 26.615 11.6375C26.615 12.0625 26.665 12.395 26.765 12.635C26.87 12.875 27.1025 12.995 27.4625 12.995C27.6075 12.995 27.745 12.9825 27.875 12.9575C28.005 12.9325 28.1025 12.9075 28.1675 12.8825V13.9925C28.0825 14.0225 27.9625 14.05 27.8075 14.075C27.6575 14.105 27.4875 14.12 27.2975 14.12ZM35.9968 14V11.0375C35.9968 10.8975 35.9968 10.7325 35.9968 10.5425C35.9968 10.3475 35.9968 10.1525 35.9968 9.9575C35.9968 9.7575 35.9968 9.5875 35.9968 9.4475C35.9968 8.6825 35.8318 8.105 35.5018 7.715C35.1768 7.325 34.6593 7.13 33.9493 7.13C33.4743 7.13 33.0568 7.2225 32.6968 7.4075C32.3418 7.5925 32.0643 7.845 31.8643 8.165C31.6643 8.485 31.5643 8.8475 31.5643 9.2525L30.7543 9.005C30.7543 8.435 30.9018 7.9175 31.1968 7.4525C31.4968 6.9825 31.9043 6.61 32.4193 6.335C32.9393 6.055 33.5268 5.915 34.1818 5.915C35.1368 5.915 35.8893 6.2025 36.4393 6.7775C36.9943 7.3525 37.2718 8.1475 37.2718 9.1625C37.2718 9.4275 37.2718 9.7325 37.2718 10.0775C37.2718 10.4225 37.2718 10.785 37.2718 11.165V14H35.9968ZM30.2893 14V2.2775H31.5643V14H30.2893ZM39.451 10.5275V9.3875H45.6085L45.3835 9.7625C45.3835 9.7325 45.3835 9.705 45.3835 9.68C45.3835 9.65 45.3835 9.6225 45.3835 9.5975C45.3835 9.1375 45.286 8.7175 45.091 8.3375C44.901 7.9525 44.616 7.645 44.236 7.415C43.856 7.185 43.386 7.07 42.826 7.07C42.261 7.07 41.7635 7.19 41.3335 7.43C40.9035 7.67 40.5685 8.01 40.3285 8.45C40.0885 8.885 39.9685 9.405 39.9685 10.01C39.9685 10.625 40.0835 11.155 40.3135 11.6C40.5485 12.045 40.881 12.3875 41.311 12.6275C41.741 12.8675 42.251 12.9875 42.841 12.9875C43.261 12.9875 43.626 12.945 43.936 12.86C44.246 12.77 44.501 12.6525 44.701 12.5075C44.906 12.3575 45.061 12.195 45.166 12.02C45.271 11.845 45.3335 11.67 45.3535 11.495H46.6285C46.6035 11.815 46.5035 12.1325 46.3285 12.4475C46.1535 12.7625 45.906 13.05 45.586 13.31C45.266 13.565 44.8735 13.77 44.4085 13.925C43.9435 14.08 43.4085 14.1575 42.8035 14.1575C42.0035 14.1575 41.2985 13.9825 40.6885 13.6325C40.0785 13.2825 39.5985 12.7975 39.2485 12.1775C38.9035 11.5575 38.731 10.845 38.731 10.04C38.731 9.225 38.906 8.51 39.256 7.895C39.606 7.275 40.0885 6.79 40.7035 6.44C41.3185 6.09 42.021 5.915 42.811 5.915C43.616 5.915 44.3135 6.09 44.9035 6.44C45.4935 6.79 45.9485 7.27 46.2685 7.88C46.5885 8.485 46.7485 9.175 46.7485 9.95C46.7485 10.03 46.746 10.135 46.741 10.265C46.736 10.395 46.7285 10.4825 46.7185 10.5275H39.451ZM54.4786 14L52.2511 6.035H53.3836L55.4911 13.4375H55.2586L56.6536 6.035H57.9811L56.2636 14H54.4786ZM49.0936 14L47.3611 6.035H48.6886L50.0986 13.4375H49.8661L51.9511 6.035H53.0836L50.8861 14H49.0936ZM61.7657 14.15C61.1607 14.15 60.6307 14.055 60.1757 13.865C59.7257 13.675 59.3757 13.4025 59.1257 13.0475C58.8757 12.6875 58.7507 12.2575 58.7507 11.7575C58.7507 11.2375 58.8857 10.805 59.1557 10.46C59.4257 10.11 59.8057 9.8375 60.2957 9.6425C60.7857 9.4475 61.3557 9.3175 62.0057 9.2525C62.9857 9.1525 63.6832 9.055 64.0982 8.96C64.5132 8.86 64.7207 8.7 64.7207 8.48C64.7207 8.475 64.7207 8.4725 64.7207 8.4725C64.7207 8.4675 64.7207 8.4625 64.7207 8.4575C64.7207 7.9975 64.5332 7.655 64.1582 7.43C63.7832 7.2 63.2407 7.085 62.5307 7.085C61.7907 7.085 61.2157 7.215 60.8057 7.475C60.3957 7.73 60.1907 8.145 60.1907 8.72H58.9307C58.9307 8.125 59.0832 7.62 59.3882 7.205C59.6932 6.785 60.1157 6.465 60.6557 6.245C61.2007 6.025 61.8282 5.915 62.5382 5.915C63.1882 5.915 63.7732 6.015 64.2932 6.215C64.8182 6.41 65.2332 6.7025 65.5382 7.0925C65.8482 7.4775 66.0032 7.955 66.0032 8.525C66.0032 8.63 66.0032 8.735 66.0032 8.84C66.0032 8.94 66.0032 9.0425 66.0032 9.1475V12.5C66.0032 12.675 66.0107 12.845 66.0257 13.01C66.0407 13.175 66.0657 13.32 66.1007 13.445C66.1457 13.595 66.1957 13.7175 66.2507 13.8125C66.3057 13.9025 66.3507 13.965 66.3857 14H65.1032C65.0782 13.975 65.0407 13.9175 64.9907 13.8275C64.9407 13.7325 64.8932 13.6225 64.8482 13.4975C64.8132 13.3975 64.7857 13.2725 64.7657 13.1225C64.7457 12.9675 64.7357 12.8075 64.7357 12.6425L64.9457 12.785C64.7907 13.055 64.5632 13.2925 64.2632 13.4975C63.9682 13.7025 63.6107 13.8625 63.1907 13.9775C62.7707 14.0925 62.2957 14.15 61.7657 14.15ZM61.9682 13.0025C62.4832 13.0025 62.9482 12.925 63.3632 12.77C63.7782 12.61 64.1082 12.375 64.3532 12.065C64.5982 11.755 64.7207 11.37 64.7207 10.91V9.3275L65.0057 9.8075C64.6857 9.9325 64.2857 10.035 63.8057 10.115C63.3307 10.19 62.8332 10.2525 62.3132 10.3025C61.5582 10.3725 60.9882 10.505 60.6032 10.7C60.2232 10.895 60.0332 11.2225 60.0332 11.6825C60.0332 12.1175 60.1907 12.4475 60.5057 12.6725C60.8207 12.8925 61.3082 13.0025 61.9682 13.0025ZM70.6041 14.12C70.3591 14.12 70.1191 14.0925 69.8841 14.0375C69.6491 13.9825 69.4366 13.885 69.2466 13.745C69.0616 13.6 68.9141 13.3975 68.8041 13.1375C68.6941 12.8725 68.6391 12.5325 68.6391 12.1175C68.6391 12.0125 68.6391 11.905 68.6391 11.795C68.6391 11.68 68.6391 11.56 68.6391 11.435V7.16H66.6966V6.035H67.9416C68.1116 6.035 68.2441 6.03 68.3391 6.02C68.4341 6.005 68.5016 5.9725 68.5416 5.9225C68.5866 5.8675 68.6141 5.785 68.6241 5.675C68.6341 5.56 68.6391 5.4025 68.6391 5.2025V3.395H69.9216V6.035H72.4116V7.16H69.9216V11.0225C69.9216 11.1325 69.9216 11.24 69.9216 11.345C69.9216 11.45 69.9216 11.5475 69.9216 11.6375C69.9216 12.0625 69.9716 12.395 70.0716 12.635C70.1766 12.875 70.4091 12.995 70.7691 12.995C70.9141 12.995 71.0516 12.9825 71.1816 12.9575C71.3116 12.9325 71.4091 12.9075 71.4741 12.8825V13.9925C71.3891 14.0225 71.2691 14.05 71.1141 14.075C70.9641 14.105 70.7941 14.12 70.6041 14.12ZM77.1123 14.15C76.3523 14.15 75.6623 13.985 75.0423 13.655C74.4223 13.32 73.9298 12.8425 73.5648 12.2225C73.2048 11.6025 73.0248 10.865 73.0248 10.01C73.0248 9.155 73.2048 8.4225 73.5648 7.8125C73.9298 7.1975 74.4223 6.7275 75.0423 6.4025C75.6623 6.0775 76.3523 5.915 77.1123 5.915C77.6923 5.915 78.2098 6.005 78.6648 6.185C79.1198 6.36 79.5048 6.595 79.8198 6.89C80.1348 7.185 80.3748 7.51 80.5398 7.865C80.7098 8.215 80.7948 8.565 80.7948 8.915C80.7948 8.92 80.7948 8.9275 80.7948 8.9375C80.7948 8.9475 80.7948 8.9575 80.7948 8.9675H79.5273C79.5273 8.9425 79.5248 8.915 79.5198 8.885C79.5148 8.85 79.5098 8.815 79.5048 8.78C79.4648 8.445 79.3373 8.1525 79.1223 7.9025C78.9073 7.6475 78.6273 7.4475 78.2823 7.3025C77.9373 7.1575 77.5448 7.085 77.1048 7.085C76.6098 7.085 76.1498 7.1925 75.7248 7.4075C75.3048 7.6175 74.9648 7.94 74.7048 8.375C74.4498 8.805 74.3223 9.35 74.3223 10.01C74.3223 10.665 74.4498 11.2125 74.7048 11.6525C74.9598 12.0925 75.2973 12.425 75.7173 12.65C76.1423 12.87 76.6048 12.98 77.1048 12.98C77.6448 12.98 78.0898 12.895 78.4398 12.725C78.7898 12.555 79.0523 12.33 79.2273 12.05C79.4073 11.765 79.5073 11.46 79.5273 11.135H80.7948C80.7948 11.495 80.7148 11.855 80.5548 12.215C80.3948 12.57 80.1598 12.895 79.8498 13.19C79.5398 13.48 79.1548 13.7125 78.6948 13.8875C78.2398 14.0625 77.7123 14.15 77.1123 14.15ZM88.038 14V11.0375C88.038 10.8975 88.038 10.7325 88.038 10.5425C88.038 10.3475 88.038 10.1525 88.038 9.9575C88.038 9.7575 88.038 9.5875 88.038 9.4475C88.038 8.6825 87.873 8.105 87.543 7.715C87.218 7.325 86.7005 7.13 85.9905 7.13C85.5155 7.13 85.098 7.2225 84.738 7.4075C84.383 7.5925 84.1055 7.845 83.9055 8.165C83.7055 8.485 83.6055 8.8475 83.6055 9.2525L82.7955 9.005C82.7955 8.435 82.943 7.9175 83.238 7.4525C83.538 6.9825 83.9455 6.61 84.4605 6.335C84.9805 6.055 85.568 5.915 86.223 5.915C87.178 5.915 87.9305 6.2025 88.4805 6.7775C89.0355 7.3525 89.313 8.1475 89.313 9.1625C89.313 9.4275 89.313 9.7325 89.313 10.0775C89.313 10.4225 89.313 10.785 89.313 11.165V14H88.038ZM82.3305 14V2.2775H83.6055V14H82.3305ZM94.1247 14.15C93.6447 14.15 93.1997 14.1 92.7897 14C92.3847 13.895 92.0297 13.745 91.7247 13.55C91.4247 13.35 91.1897 13.105 91.0197 12.815C90.8547 12.525 90.7722 12.1925 90.7722 11.8175C90.7722 11.7775 90.7722 11.7375 90.7722 11.6975C90.7722 11.6525 90.7722 11.615 90.7722 11.585H92.0547C92.0547 11.615 92.0547 11.64 92.0547 11.66C92.0547 11.68 92.0547 11.71 92.0547 11.75C92.0547 12.155 92.2422 12.465 92.6172 12.68C92.9922 12.89 93.5047 12.995 94.1547 12.995C94.5547 12.995 94.9122 12.955 95.2272 12.875C95.5422 12.795 95.7897 12.6725 95.9697 12.5075C96.1547 12.3425 96.2472 12.135 96.2472 11.885C96.2472 11.47 96.0522 11.175 95.6622 11C95.2772 10.82 94.6997 10.665 93.9297 10.535C93.5247 10.465 93.1397 10.375 92.7747 10.265C92.4097 10.15 92.0847 10.0025 91.7997 9.8225C91.5197 9.6425 91.2972 9.42 91.1322 9.155C90.9722 8.885 90.8922 8.5625 90.8922 8.1875C90.8922 7.7025 91.0347 7.2925 91.3197 6.9575C91.6097 6.6175 91.9997 6.36 92.4897 6.185C92.9797 6.005 93.5247 5.915 94.1247 5.915C94.7047 5.915 95.2397 6.0075 95.7297 6.1925C96.2197 6.3775 96.6122 6.6475 96.9072 7.0025C97.2072 7.3525 97.3572 7.785 97.3572 8.3C97.3572 8.32 97.3572 8.345 97.3572 8.375C97.3572 8.4 97.3572 8.425 97.3572 8.45H96.0822C96.0822 8.425 96.0822 8.405 96.0822 8.39C96.0822 8.375 96.0822 8.3575 96.0822 8.3375C96.0822 8.0475 95.9897 7.81 95.8047 7.625C95.6197 7.435 95.3797 7.295 95.0847 7.205C94.7897 7.11 94.4747 7.0625 94.1397 7.0625C93.8247 7.0625 93.5147 7.0975 93.2097 7.1675C92.9047 7.2325 92.6522 7.3425 92.4522 7.4975C92.2522 7.6525 92.1522 7.865 92.1522 8.135C92.1522 8.405 92.2447 8.6225 92.4297 8.7875C92.6197 8.9475 92.8847 9.08 93.2247 9.185C93.5697 9.285 93.9747 9.3775 94.4397 9.4625C94.8547 9.5375 95.2472 9.6325 95.6172 9.7475C95.9872 9.8575 96.3122 10 96.5922 10.175C96.8772 10.35 97.0997 10.5725 97.2597 10.8425C97.4247 11.1075 97.5072 11.4325 97.5072 11.8175C97.5072 12.2075 97.4172 12.5475 97.2372 12.8375C97.0622 13.1275 96.8172 13.37 96.5022 13.565C96.1922 13.76 95.8322 13.905 95.4222 14C95.0172 14.1 94.5847 14.15 94.1247 14.15ZM99.0379 17.2775V6.035H100.313V17.2775H99.0379ZM102.93 14.15C102.315 14.15 101.74 14 101.205 13.7C100.67 13.395 100.235 12.9775 99.9004 12.4475C99.5704 11.9175 99.4054 11.3125 99.4054 10.6325C99.4054 10.6175 99.4054 10.605 99.4054 10.595C99.4054 10.585 99.4054 10.5725 99.4054 10.5575L100.32 10.535C100.32 10.545 100.32 10.5575 100.32 10.5725C100.32 10.5825 100.32 10.5925 100.32 10.6025C100.32 11.0325 100.433 11.425 100.658 11.78C100.888 12.135 101.188 12.4175 101.558 12.6275C101.928 12.8375 102.325 12.9425 102.75 12.9425C103.455 12.9425 104.04 12.7025 104.505 12.2225C104.975 11.7375 105.21 11 105.21 10.01C105.21 9.015 104.978 8.28 104.513 7.805C104.048 7.325 103.46 7.085 102.75 7.085C102.325 7.085 101.928 7.19 101.558 7.4C101.188 7.605 100.888 7.8825 100.658 8.2325C100.433 8.5825 100.32 8.975 100.32 9.41L99.4054 9.38C99.4054 8.695 99.5704 8.0925 99.9004 7.5725C100.235 7.0525 100.67 6.6475 101.205 6.3575C101.74 6.0625 102.315 5.915 102.93 5.915C103.575 5.915 104.17 6.075 104.715 6.395C105.26 6.71 105.698 7.1725 106.028 7.7825C106.358 8.3925 106.523 9.135 106.523 10.01C106.523 10.9 106.36 11.655 106.035 12.275C105.71 12.89 105.275 13.3575 104.73 13.6775C104.185 13.9925 103.585 14.15 102.93 14.15ZM111.838 14.1425C111.038 14.1425 110.33 13.965 109.715 13.61C109.105 13.25 108.625 12.76 108.275 12.14C107.93 11.515 107.758 10.805 107.758 10.01C107.758 9.215 107.93 8.51 108.275 7.895C108.625 7.28 109.105 6.7975 109.715 6.4475C110.33 6.0975 111.038 5.9225 111.838 5.9225C112.638 5.9225 113.343 6.0975 113.953 6.4475C114.568 6.7975 115.048 7.28 115.393 7.895C115.743 8.51 115.918 9.215 115.918 10.01C115.918 10.805 115.743 11.515 115.393 12.14C115.048 12.76 114.568 13.25 113.953 13.61C113.343 13.965 112.638 14.1425 111.838 14.1425ZM111.838 12.9725C112.388 12.9725 112.873 12.85 113.293 12.605C113.713 12.36 114.04 12.015 114.275 11.57C114.515 11.125 114.635 10.605 114.635 10.01C114.635 9.415 114.515 8.9 114.275 8.465C114.04 8.025 113.713 7.6875 113.293 7.4525C112.873 7.2125 112.388 7.0925 111.838 7.0925C111.293 7.0925 110.808 7.2125 110.383 7.4525C109.963 7.6875 109.633 8.025 109.393 8.465C109.158 8.9 109.04 9.415 109.04 10.01C109.04 10.605 109.158 11.125 109.393 11.57C109.633 12.015 109.963 12.36 110.383 12.605C110.808 12.85 111.293 12.9725 111.838 12.9725ZM120.448 14.12C120.203 14.12 119.963 14.0925 119.728 14.0375C119.493 13.9825 119.281 13.885 119.091 13.745C118.906 13.6 118.758 13.3975 118.648 13.1375C118.538 12.8725 118.483 12.5325 118.483 12.1175C118.483 12.0125 118.483 11.905 118.483 11.795C118.483 11.68 118.483 11.56 118.483 11.435V7.16H116.541V6.035H117.786C117.956 6.035 118.088 6.03 118.183 6.02C118.278 6.005 118.346 5.9725 118.386 5.9225C118.431 5.8675 118.458 5.785 118.468 5.675C118.478 5.56 118.483 5.4025 118.483 5.2025V3.395H119.766V6.035H122.256V7.16H119.766V11.0225C119.766 11.1325 119.766 11.24 119.766 11.345C119.766 11.45 119.766 11.5475 119.766 11.6375C119.766 12.0625 119.816 12.395 119.916 12.635C120.021 12.875 120.253 12.995 120.613 12.995C120.758 12.995 120.896 12.9825 121.026 12.9575C121.156 12.9325 121.253 12.9075 121.318 12.8825V13.9925C121.233 14.0225 121.113 14.05 120.958 14.075C120.808 14.105 120.638 14.12 120.448 14.12Z" fill="#ffffff"/>
<linearGradient id="paint0_linear_102_282" x1="15.6653" y1="11.022" x2="10.9137" y2="2.13271" gradientUnits="userSpaceOnUse">
<stop/>
<stop offset="0.494792" stop-color="#ffffff"/>
<stop offset="1" stop-color="#ffffff"/>
</linearGradient>
<linearGradient id="paint1_linear_102_282" x1="3.35922" y1="7.9535" x2="8.12811" y2="16.8543" gradientUnits="userSpaceOnUse">
<stop stop-color="#ffffff"/>
<stop offset="0.494792" stop-color="#ffffff"/>
<stop offset="1" stop-color="#ffffff"/>
</linearGradient>
</symbol>

<!-- Logo Favicon -->
<symbol id="the-watch-logo" width="123" height="19" viewBox="0 0 123 19" fill="none" xmlns="http://www.w3.org/2000/svg">
<path d="M16.7014 11.022L12.6949 1.84445L11.8213 1.23883L10.797 0.912729L9.41133 0.540039L7.78461 1.23883L6.70013 1.84445L10.797 11.022H16.7014Z" fill="#1E2827"/>
<path d="M2.32305 7.9535L6.32959 17.1525L7.2032 17.7595L8.22743 18.0864L9.61315 18.46L11.2399 17.7595L12.3243 17.1525L8.22743 7.9535H2.32305Z" fill="#1E2827"/>
<path d="M6.4859 1.9646L0.265933 10.9553L6.4859 11.022L10.9822 1.9646C11.2979 1.03802 12.2856 1.57853 12.74 1.9646C10.798 -1.59348 7.76144 0.482067 6.4859 1.9646Z" fill="#1E2827"/>
<path d="M12.5141 17.0354L18.7341 8.04468L12.5141 7.97804L8.01783 17.0354C7.70213 17.962 6.71439 17.4215 6.25997 17.0354C8.20198 20.5935 11.2386 18.5179 12.5141 17.0354Z" fill="#1E2827"/>
<path d="M27.2975 14.12C27.0525 14.12 26.8125 14.0925 26.5775 14.0375C26.3425 13.9825 26.13 13.885 25.94 13.745C25.755 13.6 25.6075 13.3975 25.4975 13.1375C25.3875 12.8725 25.3325 12.5325 25.3325 12.1175C25.3325 12.0125 25.3325 11.905 25.3325 11.795C25.3325 11.68 25.3325 11.56 25.3325 11.435V7.16H23.39V6.035H24.635C24.805 6.035 24.9375 6.03 25.0325 6.02C25.1275 6.005 25.195 5.9725 25.235 5.9225C25.28 5.8675 25.3075 5.785 25.3175 5.675C25.3275 5.56 25.3325 5.4025 25.3325 5.2025V3.395H26.615V6.035H29.105V7.16H26.615V11.0225C26.615 11.1325 26.615 11.24 26.615 11.345C26.615 11.45 26.615 11.5475 26.615 11.6375C26.615 12.0625 26.665 12.395 26.765 12.635C26.87 12.875 27.1025 12.995 27.4625 12.995C27.6075 12.995 27.745 12.9825 27.875 12.9575C28.005 12.9325 28.1025 12.9075 28.1675 12.8825V13.9925C28.0825 14.0225 27.9625 14.05 27.8075 14.075C27.6575 14.105 27.4875 14.12 27.2975 14.12ZM35.9968 14V11.0375C35.9968 10.8975 35.9968 10.7325 35.9968 10.5425C35.9968 10.3475 35.9968 10.1525 35.9968 9.9575C35.9968 9.7575 35.9968 9.5875 35.9968 9.4475C35.9968 8.6825 35.8318 8.105 35.5018 7.715C35.1768 7.325 34.6593 7.13 33.9493 7.13C33.4743 7.13 33.0568 7.2225 32.6968 7.4075C32.3418 7.5925 32.0643 7.845 31.8643 8.165C31.6643 8.485 31.5643 8.8475 31.5643 9.2525L30.7543 9.005C30.7543 8.435 30.9018 7.9175 31.1968 7.4525C31.4968 6.9825 31.9043 6.61 32.4193 6.335C32.9393 6.055 33.5268 5.915 34.1818 5.915C35.1368 5.915 35.8893 6.2025 36.4393 6.7775C36.9943 7.3525 37.2718 8.1475 37.2718 9.1625C37.2718 9.4275 37.2718 9.7325 37.2718 10.0775C37.2718 10.4225 37.2718 10.785 37.2718 11.165V14H35.9968ZM30.2893 14V2.2775H31.5643V14H30.2893ZM39.451 10.5275V9.3875H45.6085L45.3835 9.7625C45.3835 9.7325 45.3835 9.705 45.3835 9.68C45.3835 9.65 45.3835 9.6225 45.3835 9.5975C45.3835 9.1375 45.286 8.7175 45.091 8.3375C44.901 7.9525 44.616 7.645 44.236 7.415C43.856 7.185 43.386 7.07 42.826 7.07C42.261 7.07 41.7635 7.19 41.3335 7.43C40.9035 7.67 40.5685 8.01 40.3285 8.45C40.0885 8.885 39.9685 9.405 39.9685 10.01C39.9685 10.625 40.0835 11.155 40.3135 11.6C40.5485 12.045 40.881 12.3875 41.311 12.6275C41.741 12.8675 42.251 12.9875 42.841 12.9875C43.261 12.9875 43.626 12.945 43.936 12.86C44.246 12.77 44.501 12.6525 44.701 12.5075C44.906 12.3575 45.061 12.195 45.166 12.02C45.271 11.845 45.3335 11.67 45.3535 11.495H46.6285C46.6035 11.815 46.5035 12.1325 46.3285 12.4475C46.1535 12.7625 45.906 13.05 45.586 13.31C45.266 13.565 44.8735 13.77 44.4085 13.925C43.9435 14.08 43.4085 14.1575 42.8035 14.1575C42.0035 14.1575 41.2985 13.9825 40.6885 13.6325C40.0785 13.2825 39.5985 12.7975 39.2485 12.1775C38.9035 11.5575 38.731 10.845 38.731 10.04C38.731 9.225 38.906 8.51 39.256 7.895C39.606 7.275 40.0885 6.79 40.7035 6.44C41.3185 6.09 42.021 5.915 42.811 5.915C43.616 5.915 44.3135 6.09 44.9035 6.44C45.4935 6.79 45.9485 7.27 46.2685 7.88C46.5885 8.485 46.7485 9.175 46.7485 9.95C46.7485 10.03 46.746 10.135 46.741 10.265C46.736 10.395 46.7285 10.4825 46.7185 10.5275H39.451ZM54.4786 14L52.2511 6.035H53.3836L55.4911 13.4375H55.2586L56.6536 6.035H57.9811L56.2636 14H54.4786ZM49.0936 14L47.3611 6.035H48.6886L50.0986 13.4375H49.8661L51.9511 6.035H53.0836L50.8861 14H49.0936ZM61.7657 14.15C61.1607 14.15 60.6307 14.055 60.1757 13.865C59.7257 13.675 59.3757 13.4025 59.1257 13.0475C58.8757 12.6875 58.7507 12.2575 58.7507 11.7575C58.7507 11.2375 58.8857 10.805 59.1557 10.46C59.4257 10.11 59.8057 9.8375 60.2957 9.6425C60.7857 9.4475 61.3557 9.3175 62.0057 9.2525C62.9857 9.1525 63.6832 9.055 64.0982 8.96C64.5132 8.86 64.7207 8.7 64.7207 8.48C64.7207 8.475 64.7207 8.4725 64.7207 8.4725C64.7207 8.4675 64.7207 8.4625 64.7207 8.4575C64.7207 7.9975 64.5332 7.655 64.1582 7.43C63.7832 7.2 63.2407 7.085 62.5307 7.085C61.7907 7.085 61.2157 7.215 60.8057 7.475C60.3957 7.73 60.1907 8.145 60.1907 8.72H58.9307C58.9307 8.125 59.0832 7.62 59.3882 7.205C59.6932 6.785 60.1157 6.465 60.6557 6.245C61.2007 6.025 61.8282 5.915 62.5382 5.915C63.1882 5.915 63.7732 6.015 64.2932 6.215C64.8182 6.41 65.2332 6.7025 65.5382 7.0925C65.8482 7.4775 66.0032 7.955 66.0032 8.525C66.0032 8.63 66.0032 8.735 66.0032 8.84C66.0032 8.94 66.0032 9.0425 66.0032 9.1475V12.5C66.0032 12.675 66.0107 12.845 66.0257 13.01C66.0407 13.175 66.0657 13.32 66.1007 13.445C66.1457 13.595 66.1957 13.7175 66.2507 13.8125C66.3057 13.9025 66.3507 13.965 66.3857 14H65.1032C65.0782 13.975 65.0407 13.9175 64.9907 13.8275C64.9407 13.7325 64.8932 13.6225 64.8482 13.4975C64.8132 13.3975 64.7857 13.2725 64.7657 13.1225C64.7457 12.9675 64.7357 12.8075 64.7357 12.6425L64.9457 12.785C64.7907 13.055 64.5632 13.2925 64.2632 13.4975C63.9682 13.7025 63.6107 13.8625 63.1907 13.9775C62.7707 14.0925 62.2957 14.15 61.7657 14.15ZM61.9682 13.0025C62.4832 13.0025 62.9482 12.925 63.3632 12.77C63.7782 12.61 64.1082 12.375 64.3532 12.065C64.5982 11.755 64.7207 11.37 64.7207 10.91V9.3275L65.0057 9.8075C64.6857 9.9325 64.2857 10.035 63.8057 10.115C63.3307 10.19 62.8332 10.2525 62.3132 10.3025C61.5582 10.3725 60.9882 10.505 60.6032 10.7C60.2232 10.895 60.0332 11.2225 60.0332 11.6825C60.0332 12.1175 60.1907 12.4475 60.5057 12.6725C60.8207 12.8925 61.3082 13.0025 61.9682 13.0025ZM70.6041 14.12C70.3591 14.12 70.1191 14.0925 69.8841 14.0375C69.6491 13.9825 69.4366 13.885 69.2466 13.745C69.0616 13.6 68.9141 13.3975 68.8041 13.1375C68.6941 12.8725 68.6391 12.5325 68.6391 12.1175C68.6391 12.0125 68.6391 11.905 68.6391 11.795C68.6391 11.68 68.6391 11.56 68.6391 11.435V7.16H66.6966V6.035H67.9416C68.1116 6.035 68.2441 6.03 68.3391 6.02C68.4341 6.005 68.5016 5.9725 68.5416 5.9225C68.5866 5.8675 68.6141 5.785 68.6241 5.675C68.6341 5.56 68.6391 5.4025 68.6391 5.2025V3.395H69.9216V6.035H72.4116V7.16H69.9216V11.0225C69.9216 11.1325 69.9216 11.24 69.9216 11.345C69.9216 11.45 69.9216 11.5475 69.9216 11.6375C69.9216 12.0625 69.9716 12.395 70.0716 12.635C70.1766 12.875 70.4091 12.995 70.7691 12.995C70.9141 12.995 71.0516 12.9825 71.1816 12.9575C71.3116 12.9325 71.4091 12.9075 71.4741 12.8825V13.9925C71.3891 14.0225 71.2691 14.05 71.1141 14.075C70.9641 14.105 70.7941 14.12 70.6041 14.12ZM77.1123 14.15C76.3523 14.15 75.6623 13.985 75.0423 13.655C74.4223 13.32 73.9298 12.8425 73.5648 12.2225C73.2048 11.6025 73.0248 10.865 73.0248 10.01C73.0248 9.155 73.2048 8.4225 73.5648 7.8125C73.9298 7.1975 74.4223 6.7275 75.0423 6.4025C75.6623 6.0775 76.3523 5.915 77.1123 5.915C77.6923 5.915 78.2098 6.005 78.6648 6.185C79.1198 6.36 79.5048 6.595 79.8198 6.89C80.1348 7.185 80.3748 7.51 80.5398 7.865C80.7098 8.215 80.7948 8.565 80.7948 8.915C80.7948 8.92 80.7948 8.9275 80.7948 8.9375C80.7948 8.9475 80.7948 8.9575 80.7948 8.9675H79.5273C79.5273 8.9425 79.5248 8.915 79.5198 8.885C79.5148 8.85 79.5098 8.815 79.5048 8.78C79.4648 8.445 79.3373 8.1525 79.1223 7.9025C78.9073 7.6475 78.6273 7.4475 78.2823 7.3025C77.9373 7.1575 77.5448 7.085 77.1048 7.085C76.6098 7.085 76.1498 7.1925 75.7248 7.4075C75.3048 7.6175 74.9648 7.94 74.7048 8.375C74.4498 8.805 74.3223 9.35 74.3223 10.01C74.3223 10.665 74.4498 11.2125 74.7048 11.6525C74.9598 12.0925 75.2973 12.425 75.7173 12.65C76.1423 12.87 76.6048 12.98 77.1048 12.98C77.6448 12.98 78.0898 12.895 78.4398 12.725C78.7898 12.555 79.0523 12.33 79.2273 12.05C79.4073 11.765 79.5073 11.46 79.5273 11.135H80.7948C80.7948 11.495 80.7148 11.855 80.5548 12.215C80.3948 12.57 80.1598 12.895 79.8498 13.19C79.5398 13.48 79.1548 13.7125 78.6948 13.8875C78.2398 14.0625 77.7123 14.15 77.1123 14.15ZM88.038 14V11.0375C88.038 10.8975 88.038 10.7325 88.038 10.5425C88.038 10.3475 88.038 10.1525 88.038 9.9575C88.038 9.7575 88.038 9.5875 88.038 9.4475C88.038 8.6825 87.873 8.105 87.543 7.715C87.218 7.325 86.7005 7.13 85.9905 7.13C85.5155 7.13 85.098 7.2225 84.738 7.4075C84.383 7.5925 84.1055 7.845 83.9055 8.165C83.7055 8.485 83.6055 8.8475 83.6055 9.2525L82.7955 9.005C82.7955 8.435 82.943 7.9175 83.238 7.4525C83.538 6.9825 83.9455 6.61 84.4605 6.335C84.9805 6.055 85.568 5.915 86.223 5.915C87.178 5.915 87.9305 6.2025 88.4805 6.7775C89.0355 7.3525 89.313 8.1475 89.313 9.1625C89.313 9.4275 89.313 9.7325 89.313 10.0775C89.313 10.4225 89.313 10.785 89.313 11.165V14H88.038ZM82.3305 14V2.2775H83.6055V14H82.3305ZM94.1247 14.15C93.6447 14.15 93.1997 14.1 92.7897 14C92.3847 13.895 92.0297 13.745 91.7247 13.55C91.4247 13.35 91.1897 13.105 91.0197 12.815C90.8547 12.525 90.7722 12.1925 90.7722 11.8175C90.7722 11.7775 90.7722 11.7375 90.7722 11.6975C90.7722 11.6525 90.7722 11.615 90.7722 11.585H92.0547C92.0547 11.615 92.0547 11.64 92.0547 11.66C92.0547 11.68 92.0547 11.71 92.0547 11.75C92.0547 12.155 92.2422 12.465 92.6172 12.68C92.9922 12.89 93.5047 12.995 94.1547 12.995C94.5547 12.995 94.9122 12.955 95.2272 12.875C95.5422 12.795 95.7897 12.6725 95.9697 12.5075C96.1547 12.3425 96.2472 12.135 96.2472 11.885C96.2472 11.47 96.0522 11.175 95.6622 11C95.2772 10.82 94.6997 10.665 93.9297 10.535C93.5247 10.465 93.1397 10.375 92.7747 10.265C92.4097 10.15 92.0847 10.0025 91.7997 9.8225C91.5197 9.6425 91.2972 9.42 91.1322 9.155C90.9722 8.885 90.8922 8.5625 90.8922 8.1875C90.8922 7.7025 91.0347 7.2925 91.3197 6.9575C91.6097 6.6175 91.9997 6.36 92.4897 6.185C92.9797 6.005 93.5247 5.915 94.1247 5.915C94.7047 5.915 95.2397 6.0075 95.7297 6.1925C96.2197 6.3775 96.6122 6.6475 96.9072 7.0025C97.2072 7.3525 97.3572 7.785 97.3572 8.3C97.3572 8.32 97.3572 8.345 97.3572 8.375C97.3572 8.4 97.3572 8.425 97.3572 8.45H96.0822C96.0822 8.425 96.0822 8.405 96.0822 8.39C96.0822 8.375 96.0822 8.3575 96.0822 8.3375C96.0822 8.0475 95.9897 7.81 95.8047 7.625C95.6197 7.435 95.3797 7.295 95.0847 7.205C94.7897 7.11 94.4747 7.0625 94.1397 7.0625C93.8247 7.0625 93.5147 7.0975 93.2097 7.1675C92.9047 7.2325 92.6522 7.3425 92.4522 7.4975C92.2522 7.6525 92.1522 7.865 92.1522 8.135C92.1522 8.405 92.2447 8.6225 92.4297 8.7875C92.6197 8.9475 92.8847 9.08 93.2247 9.185C93.5697 9.285 93.9747 9.3775 94.4397 9.4625C94.8547 9.5375 95.2472 9.6325 95.6172 9.7475C95.9872 9.8575 96.3122 10 96.5922 10.175C96.8772 10.35 97.0997 10.5725 97.2597 10.8425C97.4247 11.1075 97.5072 11.4325 97.5072 11.8175C97.5072 12.2075 97.4172 12.5475 97.2372 12.8375C97.0622 13.1275 96.8172 13.37 96.5022 13.565C96.1922 13.76 95.8322 13.905 95.4222 14C95.0172 14.1 94.5847 14.15 94.1247 14.15ZM99.0379 17.2775V6.035H100.313V17.2775H99.0379ZM102.93 14.15C102.315 14.15 101.74 14 101.205 13.7C100.67 13.395 100.235 12.9775 99.9004 12.4475C99.5704 11.9175 99.4054 11.3125 99.4054 10.6325C99.4054 10.6175 99.4054 10.605 99.4054 10.595C99.4054 10.585 99.4054 10.5725 99.4054 10.5575L100.32 10.535C100.32 10.545 100.32 10.5575 100.32 10.5725C100.32 10.5825 100.32 10.5925 100.32 10.6025C100.32 11.0325 100.433 11.425 100.658 11.78C100.888 12.135 101.188 12.4175 101.558 12.6275C101.928 12.8375 102.325 12.9425 102.75 12.9425C103.455 12.9425 104.04 12.7025 104.505 12.2225C104.975 11.7375 105.21 11 105.21 10.01C105.21 9.015 104.978 8.28 104.513 7.805C104.048 7.325 103.46 7.085 102.75 7.085C102.325 7.085 101.928 7.19 101.558 7.4C101.188 7.605 100.888 7.8825 100.658 8.2325C100.433 8.5825 100.32 8.975 100.32 9.41L99.4054 9.38C99.4054 8.695 99.5704 8.0925 99.9004 7.5725C100.235 7.0525 100.67 6.6475 101.205 6.3575C101.74 6.0625 102.315 5.915 102.93 5.915C103.575 5.915 104.17 6.075 104.715 6.395C105.26 6.71 105.698 7.1725 106.028 7.7825C106.358 8.3925 106.523 9.135 106.523 10.01C106.523 10.9 106.36 11.655 106.035 12.275C105.71 12.89 105.275 13.3575 104.73 13.6775C104.185 13.9925 103.585 14.15 102.93 14.15ZM111.838 14.1425C111.038 14.1425 110.33 13.965 109.715 13.61C109.105 13.25 108.625 12.76 108.275 12.14C107.93 11.515 107.758 10.805 107.758 10.01C107.758 9.215 107.93 8.51 108.275 7.895C108.625 7.28 109.105 6.7975 109.715 6.4475C110.33 6.0975 111.038 5.9225 111.838 5.9225C112.638 5.9225 113.343 6.0975 113.953 6.4475C114.568 6.7975 115.048 7.28 115.393 7.895C115.743 8.51 115.918 9.215 115.918 10.01C115.918 10.805 115.743 11.515 115.393 12.14C115.048 12.76 114.568 13.25 113.953 13.61C113.343 13.965 112.638 14.1425 111.838 14.1425ZM111.838 12.9725C112.388 12.9725 112.873 12.85 113.293 12.605C113.713 12.36 114.04 12.015 114.275 11.57C114.515 11.125 114.635 10.605 114.635 10.01C114.635 9.415 114.515 8.9 114.275 8.465C114.04 8.025 113.713 7.6875 113.293 7.4525C112.873 7.2125 112.388 7.0925 111.838 7.0925C111.293 7.0925 110.808 7.2125 110.383 7.4525C109.963 7.6875 109.633 8.025 109.393 8.465C109.158 8.9 109.04 9.415 109.04 10.01C109.04 10.605 109.158 11.125 109.393 11.57C109.633 12.015 109.963 12.36 110.383 12.605C110.808 12.85 111.293 12.9725 111.838 12.9725ZM120.448 14.12C120.203 14.12 119.963 14.0925 119.728 14.0375C119.493 13.9825 119.281 13.885 119.091 13.745C118.906 13.6 118.758 13.3975 118.648 13.1375C118.538 12.8725 118.483 12.5325 118.483 12.1175C118.483 12.0125 118.483 11.905 118.483 11.795C118.483 11.68 118.483 11.56 118.483 11.435V7.16H116.541V6.035H117.786C117.956 6.035 118.088 6.03 118.183 6.02C118.278 6.005 118.346 5.9725 118.386 5.9225C118.431 5.8675 118.458 5.785 118.468 5.675C118.478 5.56 118.483 5.4025 118.483 5.2025V3.395H119.766V6.035H122.256V7.16H119.766V11.0225C119.766 11.1325 119.766 11.24 119.766 11.345C119.766 11.45 119.766 11.5475 119.766 11.6375C119.766 12.0625 119.816 12.395 119.916 12.635C120.021 12.875 120.253 12.995 120.613 12.995C120.758 12.995 120.896 12.9825 121.026 12.9575C121.156 12.9325 121.253 12.9075 121.318 12.8825V13.9925C121.233 14.0225 121.113 14.05 120.958 14.075C120.808 14.105 120.638 14.12 120.448 14.12Z" fill="#1E2827"/>
<linearGradient id="paint0_linear_102_282" x1="15.6653" y1="11.022" x2="10.9137" y2="2.13271" gradientUnits="userSpaceOnUse">
<stop/>
<stop offset="0.494792" stop-color="#1E2827"/>
<stop offset="1" stop-color="#1E2827"/>
</linearGradient>
<linearGradient id="paint1_linear_102_282" x1="3.35922" y1="7.9535" x2="8.12811" y2="16.8543" gradientUnits="userSpaceOnUse">
<stop stop-color="#1E2827"/>
<stop offset="0.494792" stop-color="#1E2827"/>
<stop offset="1" stop-color="#1E2827"/>
</linearGradient>
</symbol>



<!-- Logo Icon-->
<symbol id="logo-icon" viewBox="0 0 50 50" fill="none" xmlns="http://www.w3.org/2000/svg">
<path d="M43.9511 29.0059L33.4076 4.85455L31.1086 3.26081L28.4133 2.40264L24.7667 1.42188L20.4858 3.26081L17.632 4.85455L28.4133 29.0059H43.9511Z" fill="#ffffff"/>
<path d="M6.11333 20.9295L16.6568 45.1374L18.9558 46.7349L21.6511 47.5951L25.2978 48.5781L29.5786 46.7349L32.4325 45.1374L21.6511 20.9295L6.11333 20.9295Z" fill="#ffffff"/>
<path d="M17.0682 5.17001L0.699824 28.8298L17.0682 29.0052L28.9005 5.17001C29.7312 2.73162 32.3306 4.15401 33.5264 5.17001C28.4158 -4.19337 20.4248 1.2686 17.0682 5.17001Z" fill="#ffffff"/>
<path d="M32.9318 44.83L49.3002 21.1702L32.9318 20.9948L21.0995 44.83C20.2688 47.2684 17.6694 45.846 16.4736 44.83C21.5842 54.1934 29.5752 48.7314 32.9318 44.83Z" fill="#ffffff"/>
<defs>
<linearGradient id="paint0_linear_102_110" x1="41.2244" y1="29.0059" x2="28.7202" y2="5.61312" gradientUnits="userSpaceOnUse">
<stop/>
<stop offset="0.494792" stop-color="#ffffff"/>
<stop offset="1" stop-color="#ffffff"/>
</linearGradient>
<linearGradient id="paint1_linear_102_110" x1="8.84009" y1="20.9295" x2="21.3898" y2="44.3526" gradientUnits="userSpaceOnUse">
<stop stop-color="#ffffff"/>
<stop offset="0.494792" stop-color="#ffffff"/>
<stop offset="1" stop-color="#ffffff"/>
</linearGradient>
</defs>
</symbol>

<!-- facebook -->
<symbol id="facebook" width="28" height="28" viewBox="0 0 28 28" xmlns="http://www.w3.org/2000/svg">
<g opacity="0.8">
<path d="M17.08 4.06023C17.29 4.06023 17.5 4.06023 17.92 4.06023V7.21023C17.71 7.21023 17.29 7.21023 16.87 7.21023C16.45 7.21023 16.03 7.21023 15.82 7.42023C15.61 7.63023 15.61 7.84023 15.61 8.33023C15.61 8.75023 15.61 9.03023 15.61 9.45023H17.92V12.1102H15.61V23.6602H12.04V12.0402H10.15V9.38023H12.04V8.47023C12.04 6.93023 12.25 5.81023 12.67 5.32023C13.3 4.41023 14.56 3.99023 16.45 3.99023C16.66 4.06023 16.87 4.06023 17.08 4.06023Z"/>
</g>
</symbol>

<!-- instagram  -->
<symbol id="instagram" width="28" height="28" viewBox="0 0 28 28" xmlns="http://www.w3.org/2000/svg">
<g opacity="0.8">
<path d="M25.1278 9.41127C25.1142 8.47121 24.94 7.5386 24.6067 6.65939C24.0233 5.15803 22.8354 3.97084 21.3315 3.38967C20.462 3.06307 19.5428 2.88797 18.6123 2.86811C17.4157 2.81471 17.0363 2.7998 13.9987 2.7998C10.9612 2.7998 10.5718 2.7998 9.38391 2.86811C8.45472 2.88797 7.53548 3.06307 6.666 3.38967C5.16214 3.97084 3.97298 5.15803 3.39084 6.65939C3.06369 7.52743 2.88706 8.44513 2.86965 9.37277C2.81616 10.5687 2.79999 10.9474 2.79999 13.9799C2.79999 17.0125 2.79999 17.3999 2.86965 18.5871C2.8883 19.516 3.06369 20.4325 3.39084 21.303C3.97422 22.8031 5.16214 23.9903 6.66725 24.5714C7.533 24.9092 8.45223 25.1005 9.38515 25.1303C10.583 25.1837 10.9624 25.1998 14 25.1998C17.0376 25.1998 17.4269 25.1998 18.6148 25.1303C19.544 25.1116 20.4632 24.9365 21.334 24.6099C22.8378 24.0275 24.0258 22.8403 24.6091 21.3402C24.9363 20.4709 25.1117 19.5545 25.1303 18.6244C25.1838 17.4297 25.2 17.051 25.2 14.0172C25.1975 10.9847 25.1975 10.5997 25.1278 9.41127ZM13.9913 19.7147C10.8144 19.7147 8.24077 17.1453 8.24077 13.9737C8.24077 10.8021 10.8144 8.23278 13.9913 8.23278C17.1657 8.23278 19.7418 10.8021 19.7418 13.9737C19.7418 17.1453 17.1657 19.7147 13.9913 19.7147ZM19.9707 9.35911C19.2281 9.35911 18.6298 8.76056 18.6298 8.02043C18.6298 7.2803 19.2281 6.68174 19.9707 6.68174C20.7108 6.68174 21.3103 7.2803 21.3103 8.02043C21.3103 8.76056 20.7108 9.35911 19.9707 9.35911Z"/>
<path d="M13.9931 17.4792C15.928 17.4792 17.4966 15.9106 17.4966 13.9757C17.4966 12.0407 15.928 10.4722 13.9931 10.4722C12.0581 10.4722 10.4896 12.0407 10.4896 13.9757C10.4896 15.9106 12.0581 17.4792 13.9931 17.4792Z"/>
</g>
</symbol>

<!-- Youtube -->
<symbol id="youtube" width="28" height="28" viewBox="0 0 28 28" xmlns="http://www.w3.org/2000/svg">
<g opacity="0.8">
<path fill-rule="evenodd" clip-rule="evenodd" d="M21.21 5.24986C20.02 5.17986 17.57 5.10986 13.86 5.10986H13.37C9.80004 5.10986 7.42007 5.17986 6.23007 5.31986C4.62007 5.45986 3.50004 5.87986 2.87004 6.43986C2.31004 6.92986 1.89005 7.83986 1.75005 9.02986C1.68005 9.79986 1.61005 11.4099 1.61005 13.8599V14.2099C1.61005 16.5199 1.68004 18.1299 1.82004 18.8999C2.03004 20.0199 2.38007 20.8599 3.08007 21.3499C3.78007 21.9099 4.97005 22.2599 6.65005 22.3999C7.84005 22.4699 10.2901 22.5399 14.0001 22.5399H14.4901C18.0601 22.5399 20.4401 22.4699 21.6301 22.3299C23.2401 22.1899 24.3601 21.7699 24.9901 21.2099C25.5501 20.7199 25.97 19.8099 26.11 18.6199C26.18 17.8499 26.2501 16.2399 26.2501 13.7899V13.4399C26.2501 11.1299 26.1801 9.51986 26.0401 8.74986C25.8301 7.62986 25.4801 6.78986 24.7801 6.29986C24.0801 5.73986 22.89 5.38986 21.21 5.24986ZM18.4801 13.8599L10.7801 18.4799V9.23986L18.4801 13.8599Z"/>
</g>
</symbol>

<!-- hamburger menu -->
<symbol id="hamburger-menu" width="24" height="24" viewBox="0 0 24 24" fill="none" xmlns="http://www.w3.org/2000/svg">
<path d="M2 5.995C2 5.445 2.446 5 2.995 5H11.005C11.2689 5 11.522 5.10483 11.7086 5.29143C11.8952 5.47803 12 5.73111 12 5.995C12 6.25889 11.8952 6.51197 11.7086 6.69857C11.522 6.88517 11.2689 6.99 11.005 6.99H2.995C2.73111 6.99 2.47803 6.88517 2.29143 6.69857C2.10483 6.51197 2 6.25889 2 5.995ZM2 12C2 11.45 2.446 11.005 2.995 11.005H21.005C21.2689 11.005 21.522 11.1098 21.7086 11.2964C21.8952 11.483 22 11.7361 22 12C22 12.2639 21.8952 12.517 21.7086 12.7036C21.522 12.8902 21.2689 12.995 21.005 12.995H2.995C2.73111 12.995 2.47803 12.8902 2.29143 12.7036C2.10483 12.517 2 12.2639 2 12ZM2.995 17.01C2.73111 17.01 2.47803 17.1148 2.29143 17.3014C2.10483 17.488 2 17.7411 2 18.005C2 18.2689 2.10483 18.522 2.29143 18.7086C2.47803 18.8952 2.73111 19 2.995 19H15.005C15.2689 19 15.522 18.8952 15.7086 18.7086C15.8952 18.522 16 18.2689 16 18.005C16 17.7411 15.8952 17.488 15.7086 17.3014C15.522 17.1148 15.2689 17.01 15.005 17.01H2.995Z" fill="white"/>
</symbol>


</defs>
</svg>
