<svg aria-hidden="true" style="position: absolute; width: 0; height: 0; overflow: hidden;" version="1.1" xmlns="http://www.w3.org/2000/svg" xmlns:xlink="http://www.w3.org/1999/xlink">
<defs>
<symbol id="icon-range" viewBox="0 0 146 32">
<path d="M6.981 23.36c-1.004 0-1.863-0.241-2.576-0.722-0.705-0.489-1.282-1.161-1.73-2.016-0.44-0.863-0.763-1.863-0.971-2.999-0.199-1.137-0.299-2.352-0.299-3.646s0.1-2.51 0.299-3.646c0.207-1.145 0.531-2.149 0.971-3.012 0.448-0.871 1.025-1.551 1.73-2.041 0.713-0.498 1.572-0.747 2.576-0.747s1.858 0.249 2.564 0.747c0.713 0.489 1.29 1.17 1.73 2.041 0.44 0.863 0.763 1.867 0.971 3.012 0.207 1.137 0.311 2.352 0.311 3.646s-0.104 2.51-0.311 3.646c-0.207 1.137-0.531 2.136-0.971 2.999-0.44 0.855-1.016 1.527-1.73 2.016-0.705 0.481-1.56 0.722-2.564 0.722zM6.981 21.493c0.78 0 1.419-0.286 1.916-0.859 0.506-0.572 0.884-1.419 1.132-2.539s0.373-2.493 0.373-4.119c0-1.634-0.124-3.012-0.373-4.132s-0.626-1.966-1.132-2.539c-0.498-0.581-1.137-0.871-1.916-0.871-0.772 0-1.415 0.29-1.929 0.871-0.506 0.572-0.884 1.419-1.132 2.539s-0.373 2.497-0.373 4.132c0 1.634 0.124 3.012 0.373 4.132 0.249 1.112 0.626 1.954 1.132 2.526 0.514 0.572 1.157 0.859 1.929 0.859zM20.828 4.693v18.418h-2.116v-16.116c-0.066 0.091-0.274 0.212-0.622 0.361-0.34 0.149-0.763 0.295-1.269 0.436-0.498 0.133-1.029 0.228-1.593 0.286v-1.916c0.556-0.091 1.079-0.22 1.568-0.386 0.498-0.166 0.921-0.344 1.269-0.535 0.348-0.199 0.581-0.382 0.697-0.548h2.066z"></path>
<path d="M35.556 16h71.111"></path>
<path d="M124.315 23.36c-1.004 0-1.863-0.241-2.576-0.722-0.705-0.489-1.282-1.161-1.73-2.016-0.44-0.863-0.763-1.863-0.971-2.999-0.199-1.137-0.299-2.352-0.299-3.646s0.1-2.51 0.299-3.646c0.207-1.145 0.531-2.149 0.971-3.012 0.448-0.871 1.025-1.551 1.73-2.041 0.713-0.498 1.572-0.747 2.576-0.747s1.858 0.249 2.564 0.747c0.713 0.489 1.29 1.17 1.73 2.041 0.44 0.863 0.763 1.867 0.971 3.012 0.207 1.137 0.311 2.352 0.311 3.646s-0.104 2.51-0.311 3.646c-0.207 1.137-0.531 2.136-0.971 2.999-0.44 0.855-1.016 1.527-1.73 2.016-0.705 0.481-1.56 0.722-2.564 0.722zM124.315 21.493c0.78 0 1.419-0.286 1.916-0.859 0.506-0.572 0.884-1.419 1.132-2.539s0.373-2.493 0.373-4.119c0-1.634-0.124-3.012-0.373-4.132s-0.626-1.966-1.132-2.539c-0.498-0.581-1.137-0.871-1.916-0.871-0.772 0-1.415 0.29-1.929 0.871-0.506 0.572-0.884 1.419-1.132 2.539s-0.373 2.497-0.373 4.132c0 1.634 0.124 3.012 0.373 4.132 0.249 1.112 0.626 1.954 1.132 2.526 0.514 0.572 1.157 0.859 1.929 0.859zM142.841 6.61h-7.168l-0.647 6.048c0.025-0.1 0.108-0.232 0.249-0.398 0.149-0.166 0.365-0.336 0.647-0.51 0.291-0.174 0.651-0.319 1.083-0.436s0.938-0.174 1.518-0.174c1.51 0 2.655 0.539 3.435 1.618 0.788 1.079 1.182 2.501 1.182 4.268 0 1.361-0.212 2.514-0.635 3.46-0.415 0.946-1.016 1.663-1.804 2.153-0.788 0.481-1.742 0.722-2.862 0.722-0.904 0-1.692-0.133-2.364-0.398-0.664-0.274-1.211-0.655-1.643-1.145-0.423-0.489-0.742-1.062-0.958-1.717-0.207-0.655-0.311-1.373-0.311-2.153 0-0.008 0-0.012 0-0.012 0-0.008 0-0.017 0-0.025h2.103c0 0.008 0 0.017 0 0.025 0 0 0 0.004 0 0.012 0.008 1.253 0.291 2.157 0.846 2.713 0.564 0.556 1.348 0.834 2.352 0.834 0.647 0 1.203-0.162 1.668-0.485 0.473-0.324 0.834-0.813 1.083-1.468 0.257-0.655 0.386-1.481 0.386-2.476 0-1.327-0.245-2.335-0.734-3.024-0.481-0.689-1.19-1.033-2.128-1.033-0.606 0-1.137 0.12-1.593 0.361-0.456 0.232-0.834 0.519-1.132 0.859-0.29 0.34-0.498 0.664-0.622 0.971l-2.041-0.523 1.132-9.918h8.96v1.854z"></path>
</symbol>

<symbol id="icon-chevron-right" viewBox="0 0 32 32">
<path d="M12 24l8-8-8-8"></path>
</symbol>

<symbol id="icon-chevron-left" viewBox="0 0 32 32">
<path d="M20 24l-8-8 8-8"></path>
</symbol>

<symbol id="icon-close" viewBox="0 0 24 24">
<path d="M18 6L6 18" stroke="#141414" stroke-width="1.3" stroke-linecap="round" stroke-linejoin="round"/>
<path d="M6 6L18 18" stroke="#141414" stroke-width="1.3" stroke-linecap="round" stroke-linejoin="round"/>
</symbol>

<symbol id="icon-heart" viewBox="0 0 24 24">
  <path d="M20.8401 4.60999C20.3294 4.099 19.7229 3.69364 19.0555 3.41708C18.388 3.14052 17.6726 2.99817 16.9501 2.99817C16.2276 2.99817 15.5122 3.14052 14.8448 3.41708C14.1773 3.69364 13.5709 4.099 13.0601 4.60999L12.0001 5.66999L10.9401 4.60999C9.90843 3.5783 8.50915 2.9987 7.05012 2.9987C5.59109 2.9987 4.19181 3.5783 3.16012 4.60999C2.12843 5.64169 1.54883 7.04096 1.54883 8.49999C1.54883 9.95903 2.12843 11.3583 3.16012 12.39L4.22012 13.45L12.0001 21.23L19.7801 13.45L20.8401 12.39C21.3511 11.8792 21.7565 11.2728 22.033 10.6053C22.3096 9.93789 22.4519 9.22248 22.4519 8.49999C22.4519 7.77751 22.3096 7.0621 22.033 6.39464C21.7565 5.72718 21.3511 5.12075 20.8401 4.60999V4.60999Z" stroke-opacity="1" stroke-width="2" stroke-linecap="round" stroke-linejoin="round"/>
</symbol>

</defs>
</svg>
