<?xml version="1.0" encoding="utf-8"?>
<!-- Generator: Adobe Illustrator 25.0.1, SVG Export Plug-In . SVG Version: 6.00 Build 0)  -->
<svg version="1.1" id="Layer_1" xmlns="http://www.w3.org/2000/svg" xmlns:xlink="http://www.w3.org/1999/xlink" x="0px" y="0px"
	 viewBox="0 0 50 50" style="enable-background:new 0 0 50 50;" xml:space="preserve">
<style type="text/css">
	.st0{fill:#1E2827;}
	.st1{fill:#252525;}
</style>
<path id="Vector_2" class="st0" d="M44,29L33.4,4.9l-2.3-1.6l-2.7-0.9l-3.6-1l-4.3,1.8l-2.9,1.6L28.4,29H44z"/>
<path id="Vector_3" class="st0" d="M6.1,20.9l10.5,24.2l2.3,1.6l2.7,0.9l3.6,1l4.3-1.8l2.9-1.6L21.7,20.9H6.1z"/>
<path id="Vector_1" class="st1" d="M17.1,5.2L0.7,28.8L17.1,29L28.9,5.2c0.8-2.4,3.4-1,4.6,0C28.4-4.2,20.4,1.3,17.1,5.2z"/>
<path id="Vector_4" class="st1" d="M32.9,44.8l16.4-23.7L32.9,21L21.1,44.8c-0.8,2.4-3.4,1-4.6,0C21.6,54.2,29.6,48.7,32.9,44.8z"/>
</svg>
